#N canvas 956 466 403 302 12;
#X obj 19 12 cnv 15 176 84 empty empty MIDI\ Input 17 16 0 14 -261876
-66577 0;
#X obj 38 64 inlet;
#X obj 90 65 inlet;
#X obj 141 66 inlet;
#X text 35 44 value;
#X text 89 42 cc;
#X text 139 44 channel;
#X obj 20 197 cnv 15 176 84 empty empty MIDI\ Through 25 59 0 14 -261876
-66577 0;
#X obj 39 215 outlet;
#X obj 91 216 outlet;
#X obj 142 217 outlet;
#X obj 207 64 cnv 15 149 218 empty empty CC\ Map 29 23 0 14 -261748
-66577 0;
#X obj 224 217 outlet;
#X obj 302 132 == 1;
#X obj 263 157 &&, f 6;
#X obj 263 132 == 0;
#X obj 254 32 inlet;
#X obj 305 33 inlet;
#X text 254 11 cc;
#X text 304 13 channel;
#X obj 224 185 spigot;
#X text 222 247 value out;
#X connect 1 0 8 0;
#X connect 1 0 20 0;
#X connect 2 0 9 0;
#X connect 2 0 15 0;
#X connect 3 0 10 0;
#X connect 3 0 13 0;
#X connect 13 0 14 1;
#X connect 14 0 20 1;
#X connect 15 0 14 0;
#X connect 16 0 15 1;
#X connect 17 0 13 1;
#X connect 20 0 12 0;
