#N canvas 83 216 398 379 12;
#X obj 15 89 cnv 15 361 185 empty empty MIDI\ FX\ Select 29 21 0 18
-253292 -66577 0;
#X floatatom 119 128 4 0 0 0 - - -, f 4;
#X obj 64 184 <= 42, f 7;
#X obj 119 158 > 42, f 5;
#X obj 159 157 < 84, f 5;
#X obj 119 184 &&, f 5;
#X obj 187 184 > 84, f 7;
#X obj 62 46 inlet;
#X obj 140 48 inlet;
#X obj 226 47 inlet;
#X text 60 19 select;
#X text 139 21 fx ctrl 1;
#X text 224 21 fx ctrl 2;
#X obj 23 234 spigot;
#X obj 73 234 spigot;
#X obj 124 234 spigot;
#X obj 176 234 spigot;
#X obj 230 234 spigot;
#X obj 283 234 spigot;
#X obj 21 316 outlet;
#X obj 72 316 outlet;
#X obj 123 316 outlet;
#X obj 175 315 outlet;
#X obj 229 314 outlet;
#X obj 283 313 outlet;
#X text 54 347 fx 1;
#X text 160 346 fx 2;
#X text 265 343 fx 3;
#X floatatom 285 122 4 0 0 0 - - -, f 4;
#X floatatom 112 358 4 0 0 0 - - -, f 4;
#X connect 1 0 2 0;
#X connect 1 0 3 0;
#X connect 1 0 4 0;
#X connect 1 0 6 0;
#X connect 2 0 13 1;
#X connect 2 0 14 1;
#X connect 3 0 5 0;
#X connect 4 0 5 1;
#X connect 5 0 15 1;
#X connect 5 0 16 1;
#X connect 6 0 17 1;
#X connect 6 0 18 1;
#X connect 7 0 1 0;
#X connect 8 0 13 0;
#X connect 8 0 15 0;
#X connect 8 0 17 0;
#X connect 8 0 28 0;
#X connect 9 0 14 0;
#X connect 9 0 16 0;
#X connect 9 0 18 0;
#X connect 13 0 19 0;
#X connect 13 0 29 0;
#X connect 14 0 20 0;
#X connect 15 0 21 0;
#X connect 16 0 22 0;
#X connect 17 0 23 0;
#X connect 18 0 24 0;
