#N canvas 1312 358 450 300 10;
#X obj 91 10 inlet;
#X obj 112 261 outlet;
#X obj 167 262 outlet;
#X obj 220 262 outlet;
#X floatatom 52 49 3 0 0 0 - - -, f 3;
#X obj 117 102 select 44 45 36;
#X obj 157 8 inlet;
#X obj 135 57 spigot;
#X obj 74 160 bng 15 250 50 0 empty empty empty 17 7 0 10 -262144 -1
-1;
#X obj 161 156 bng 15 250 50 0 empty empty empty 17 7 0 10 -262144
-1 -1;
#X obj 233 163 tgl 15 0 empty empty empty 17 7 0 10 -262144 -1 -1 1
1;
#X connect 0 0 7 0;
#X connect 4 0 5 0;
#X connect 5 0 8 0;
#X connect 5 1 9 0;
#X connect 5 2 10 0;
#X connect 6 0 7 1;
#X connect 7 0 4 0;
#X connect 8 0 1 0;
#X connect 9 0 2 0;
#X connect 10 0 3 0;
#X coords 0 0 1 1 349 125 0;
