#N canvas 827 217 579 709 10;
#X obj 27 605 cnv 15 446 80 empty empty Slider\ Outlets 16 60 0 14
-212671 -66577 0;
#X obj 26 12 cnv 15 176 109 empty empty MIDI\ Input 17 16 0 14 -261876
-66577 0;
#X obj 45 64 inlet;
#X obj 97 65 inlet;
#X obj 144 66 inlet;
#X floatatom 45 90 5 0 0 0 - - -, f 5;
#X floatatom 96 90 4 0 0 0 - - -, f 4;
#X floatatom 145 90 4 0 0 0 - - -, f 4;
#X text 42 44 value;
#X text 96 42 cc;
#X text 142 44 channel;
#X obj 47 177 controller_cc_map, f 34;
#X obj 379 48 loadbang;
#X obj 41 617 outlet;
#X obj 48 230 controller_cc_map, f 34;
#X msg 198 208 1;
#X obj 92 617 outlet;
#X msg 248 155 1;
#X msg 197 155 0;
#X msg 249 208 1;
#X obj 49 282 controller_cc_map, f 34;
#X msg 252 260 1;
#X msg 201 260 2;
#X obj 139 617 outlet;
#X obj 206 618 outlet;
#X obj 49 335 controller_cc_map, f 34;
#X msg 252 313 1;
#X msg 201 313 3;
#X obj 50 388 controller_cc_map, f 34;
#X obj 255 618 outlet;
#X obj 52 441 controller_cc_map, f 34;
#X obj 304 618 outlet;
#X msg 254 366 1;
#X msg 255 419 1;
#X obj 53 492 controller_cc_map, f 34;
#X msg 258 471 1;
#X obj 368 617 outlet;
#X obj 420 616 outlet;
#X obj 54 545 controller_cc_map, f 34;
#X msg 258 524 1;
#X msg 203 366 4;
#X msg 204 419 5;
#X msg 207 471 6;
#X msg 207 524 7;
#X text 39 637 FX A Volume;
#X text 205 641 FX B Volume;
#X text 368 641 FX Control;
#X connect 2 0 5 0;
#X connect 3 0 6 0;
#X connect 4 0 7 0;
#X connect 5 0 11 0;
#X connect 6 0 11 1;
#X connect 7 0 11 2;
#X connect 11 0 14 0;
#X connect 11 1 14 1;
#X connect 11 2 14 2;
#X connect 11 3 13 0;
#X connect 12 0 18 0;
#X connect 12 0 17 0;
#X connect 12 0 15 0;
#X connect 12 0 19 0;
#X connect 12 0 22 0;
#X connect 12 0 21 0;
#X connect 12 0 27 0;
#X connect 12 0 26 0;
#X connect 12 0 40 0;
#X connect 12 0 32 0;
#X connect 12 0 41 0;
#X connect 12 0 33 0;
#X connect 12 0 42 0;
#X connect 12 0 35 0;
#X connect 12 0 43 0;
#X connect 12 0 39 0;
#X connect 14 0 20 0;
#X connect 14 1 20 1;
#X connect 14 2 20 2;
#X connect 14 3 16 0;
#X connect 15 0 14 3;
#X connect 17 0 11 4;
#X connect 18 0 11 3;
#X connect 19 0 14 4;
#X connect 20 0 25 0;
#X connect 20 1 25 1;
#X connect 20 2 25 2;
#X connect 20 3 23 0;
#X connect 21 0 20 4;
#X connect 22 0 20 3;
#X connect 25 0 28 0;
#X connect 25 1 28 1;
#X connect 25 2 28 2;
#X connect 25 3 24 0;
#X connect 26 0 25 4;
#X connect 27 0 25 3;
#X connect 28 0 30 0;
#X connect 28 1 30 1;
#X connect 28 2 30 2;
#X connect 28 3 29 0;
#X connect 30 0 34 0;
#X connect 30 1 34 1;
#X connect 30 2 34 2;
#X connect 30 3 31 0;
#X connect 32 0 28 4;
#X connect 33 0 30 4;
#X connect 34 0 38 0;
#X connect 34 1 38 1;
#X connect 34 2 38 2;
#X connect 34 3 36 0;
#X connect 35 0 34 4;
#X connect 38 3 37 0;
#X connect 39 0 38 4;
#X connect 40 0 28 3;
#X connect 41 0 30 3;
#X connect 42 0 34 3;
#X connect 43 0 38 3;
#X coords 0 0 1 1 349 125 0;
