#N canvas 733 212 585 725 10;
#X obj 27 605 cnv 15 529 80 empty empty Slider\ Outlets 16 60 0 14
-212671 -66577 0;
#X obj 26 12 cnv 15 176 109 empty empty MIDI\ Input 17 16 0 14 -261876
-66577 0;
#X obj 45 64 inlet;
#X obj 97 65 inlet;
#X obj 144 66 inlet;
#X floatatom 45 90 5 0 0 0 - - -, f 5;
#X floatatom 96 90 4 0 0 0 - - -, f 4;
#X floatatom 145 90 4 0 0 0 - - -, f 4;
#X text 42 44 value;
#X text 96 42 cc;
#X text 142 44 channel;
#X obj 47 177 controller_cc_map, f 34;
#X obj 379 48 loadbang;
#X obj 41 617 outlet;
#X obj 48 230 controller_cc_map, f 34;
#X obj 92 617 outlet;
#X msg 248 155 1;
#X msg 249 208 1;
#X obj 49 282 controller_cc_map, f 34;
#X msg 252 260 1;
#X obj 139 617 outlet;
#X obj 206 618 outlet;
#X obj 49 335 controller_cc_map, f 34;
#X msg 252 313 1;
#X obj 50 388 controller_cc_map, f 34;
#X obj 255 618 outlet;
#X obj 52 441 controller_cc_map, f 34;
#X obj 304 618 outlet;
#X msg 254 366 1;
#X msg 255 419 1;
#X obj 53 492 controller_cc_map, f 34;
#X msg 258 471 1;
#X obj 368 617 outlet;
#X obj 420 616 outlet;
#X obj 54 545 controller_cc_map, f 34;
#X msg 258 524 1;
#X text 39 637 FX A Volume;
#X text 205 641 FX B Volume;
#X text 368 641 FX Control;
#X obj 360 510 controller_cc_map, f 21;
#X msg 503 481 1;
#X obj 487 617 outlet;
#X text 480 642 FX Select;
#X msg 197 155 2;
#X msg 198 208 3;
#X msg 201 260 4;
#X msg 452 481 8;
#X msg 201 313 9;
#X msg 203 366 10;
#X msg 204 419 11;
#X msg 207 471 6;
#X msg 207 524 7;
#X connect 2 0 5 0;
#X connect 3 0 6 0;
#X connect 4 0 7 0;
#X connect 5 0 11 0;
#X connect 6 0 11 1;
#X connect 7 0 11 2;
#X connect 11 0 14 0;
#X connect 11 1 14 1;
#X connect 11 2 14 2;
#X connect 11 3 13 0;
#X connect 12 0 43 0;
#X connect 12 0 16 0;
#X connect 12 0 44 0;
#X connect 12 0 17 0;
#X connect 12 0 45 0;
#X connect 12 0 19 0;
#X connect 12 0 47 0;
#X connect 12 0 23 0;
#X connect 12 0 48 0;
#X connect 12 0 28 0;
#X connect 12 0 49 0;
#X connect 12 0 29 0;
#X connect 12 0 50 0;
#X connect 12 0 31 0;
#X connect 12 0 51 0;
#X connect 12 0 35 0;
#X connect 12 0 46 0;
#X connect 12 0 40 0;
#X connect 14 0 18 0;
#X connect 14 1 18 1;
#X connect 14 2 18 2;
#X connect 14 3 15 0;
#X connect 16 0 11 4;
#X connect 17 0 14 4;
#X connect 18 0 22 0;
#X connect 18 1 22 1;
#X connect 18 2 22 2;
#X connect 18 3 20 0;
#X connect 19 0 18 4;
#X connect 22 0 24 0;
#X connect 22 1 24 1;
#X connect 22 2 24 2;
#X connect 22 3 21 0;
#X connect 23 0 22 4;
#X connect 24 0 26 0;
#X connect 24 1 26 1;
#X connect 24 2 26 2;
#X connect 24 3 25 0;
#X connect 26 0 30 0;
#X connect 26 1 30 1;
#X connect 26 2 30 2;
#X connect 26 3 27 0;
#X connect 28 0 24 4;
#X connect 29 0 26 4;
#X connect 30 0 34 0;
#X connect 30 1 34 1;
#X connect 30 2 34 2;
#X connect 30 3 32 0;
#X connect 31 0 30 4;
#X connect 34 0 39 0;
#X connect 34 1 39 1;
#X connect 34 2 39 2;
#X connect 34 3 33 0;
#X connect 35 0 34 4;
#X connect 39 3 41 0;
#X connect 40 0 39 4;
#X connect 43 0 11 3;
#X connect 44 0 14 3;
#X connect 45 0 18 3;
#X connect 46 0 39 3;
#X connect 47 0 22 3;
#X connect 48 0 24 3;
#X connect 49 0 26 3;
#X connect 50 0 30 3;
#X connect 51 0 34 3;
#X coords 0 0 1 1 349 125 0;
