#N canvas 1312 358 450 300 10;
#X obj 91 10 inlet;
#X obj 108 30 select 44 45 46;
#X obj 109 200 outlet;
#X obj 164 201 outlet;
#X obj 217 201 outlet;
#X obj 224 114 spigot;
#X obj 279 111 spigot;
#X floatatom 205 74 5 0 0 0 - - -, f 5;
#X obj 102 95 tgl 15 0 empty empty empty 17 7 0 10 -262144 -1 -1 0
1;
#X connect 0 0 1 0;
#X connect 1 0 8 0;
#X connect 1 1 7 0;
#X connect 5 0 3 0;
#X connect 6 0 4 0;
#X connect 7 0 5 1;
#X connect 7 0 5 0;
#X connect 8 0 2 0;
#X coords 0 0 1 1 349 125 0;
