#N canvas 93 182 707 766 10;
#X obj 79 547 vcf~;
#X floatatom 157 517 5 0 0 0 - - -, f 5;
#X obj 157 384 vsl 15 128 0 20 0 0 empty empty empty 0 -9 0 10 -262144
-1 -1 3366 1;
#X obj 145 189 +~ 1;
#X obj 146 210 *~ 0.5;
#X obj 145 168 osc~ 2;
#X obj 246 243 hsl 128 15 700 6000 0 0 empty empty empty -2 -8 0 10
-262144 -1 -1 10304 1;
#X obj 247 308 hsl 128 15 0 700 0 0 empty empty empty -2 -8 0 10 -262144
-1 -1 181 1;
#X floatatom 178 350 6 0 0 0 - - -, f 6;
#X floatatom 185 283 6 0 0 0 - - -, f 6;
#X obj 183 248 -;
#X obj 153 288 bang;
#X obj 93 342 +~ 200;
#X obj 93 280 *~ 1500;
#X text 196 185 <-- LFO (Low-Frequency Oscillator;
#X text 382 242 <-- Maximum of the freq. range;
#X text 380 305 <-- Minimum of the freq. range;
#X text 194 474 <-- "Q";
#X text 118 548 <-- Voltage-Controlled band-pass filter;
#X obj 150 139 hsl 128 15 0.5 4 0 0 empty empty empty -2 -8 0 10 -262144
-1 -1 0 1;
#X text 331 595 Pierre Massat \, GuitarExtended \, 2012.s;
#X obj 351 115 loadbang;
#X msg 205 391 5.3;
#X obj 82 61 inlet~;
#X obj 73 597 outlet~;
#X obj 133 597 outlet~;
#X obj 150 113 + 0.5;
#X obj 150 88 * 3.5;
#X obj 150 60 inlet;
#X obj 212 59 inlet;
#X obj 212 87 * 20;
#X msg 246 220 5000;
#X msg 247 282 10;
#X connect 0 0 24 0;
#X connect 0 0 25 0;
#X connect 2 0 1 0;
#X connect 2 0 0 2;
#X connect 3 0 4 0;
#X connect 4 0 13 0;
#X connect 5 0 3 0;
#X connect 6 0 10 0;
#X connect 7 0 8 0;
#X connect 7 0 10 1;
#X connect 7 0 11 0;
#X connect 7 0 12 1;
#X connect 10 0 9 0;
#X connect 10 0 13 1;
#X connect 11 0 10 0;
#X connect 12 0 0 1;
#X connect 13 0 12 0;
#X connect 19 0 5 0;
#X connect 21 0 22 0;
#X connect 21 0 31 0;
#X connect 21 0 32 0;
#X connect 22 0 2 0;
#X connect 23 0 0 0;
#X connect 26 0 19 0;
#X connect 27 0 26 0;
#X connect 28 0 27 0;
#X connect 29 0 30 0;
#X connect 30 0 2 0;
#X connect 31 0 6 0;
#X connect 32 0 7 0;
