#N canvas 538 327 585 520 10;
#X obj 57 174 clip~ -0.5 0.5;
#X text 98 140 <-- Amplify the sound from the guitar;
#X text 158 173 <-- Hard-clip it to produce audible distortion;
#X obj 56 33 inlet~;
#X obj 62 387 outlet~;
#X obj 123 389 outlet~;
#X obj 62 336 vcf~;
#X obj 121 32 inlet;
#X obj 188 33 inlet;
#X obj 121 86 + 1;
#X obj 380 199 loadbang;
#X obj 57 142 *~ 2;
#X floatatom 250 294 4 0 0 0 - - -, f 4;
#X obj 250 271 hsl 128 15 0 20 0 0 empty empty filter\ Q -2 -8 0 10
-262144 -1 -1 6350 1;
#X floatatom 100 294 4 0 0 0 - - -, f 4;
#X obj 100 271 hsl 128 15 40 2000 0 0 empty empty filter\ frequency
-2 -8 0 10 -262144 -1 -1 0 1;
#X msg 100 239 400;
#X obj 187 65 * 2000;
#X obj 187 92 + 40;
#X obj 121 58 * 80;
#X msg 250 239 10;
#X connect 0 0 6 0;
#X connect 3 0 11 0;
#X connect 6 0 4 0;
#X connect 6 0 5 0;
#X connect 7 0 19 0;
#X connect 8 0 17 0;
#X connect 9 0 11 1;
#X connect 10 0 20 0;
#X connect 10 0 16 0;
#X connect 11 0 0 0;
#X connect 12 0 6 2;
#X connect 13 0 12 0;
#X connect 14 0 6 1;
#X connect 15 0 14 0;
#X connect 16 0 15 0;
#X connect 17 0 18 0;
#X connect 18 0 15 0;
#X connect 19 0 9 0;
#X connect 20 0 13 0;
