#N canvas 266 140 428 409 10;
#X obj 23 -122 adc~;
#X obj 52 225 dac~;
#X obj 58 174 vd~ vibrato;
#X obj 57 128 *~ 1;
#X obj 169 -3 vsl 15 128 1 5 0 0 empty empty empty 0 -9 0 10 -262144
-1 -1 0 1;
#X obj 58 150 +~ 2;
#X obj 23 -98 delwrite~ vibrato 50;
#X obj 58 87 osc~ 2;
#X obj 58 -49 vsl 15 128 1 5 0 0 empty empty empty 0 -9 0 10 -262144
-1 -1 12700 1;
#X floatatom 212 181 5 0 0 0 - - -;
#X obj 212 159 +;
#X obj 169 133 * 2;
#X floatatom 100 65 5 0 0 0 - - -;
#X text 249 182 <-- Maximum length of the delay line (= added latency!)
;
#X text 197 66 <-- Depth (change the length of the delay line);
#X text 84 -32 <-- Speed (frequency of the LFO);
#X text 178 248 Pierre Massat \, GuitarExtended \, 2012;
#X connect 0 0 6 0;
#X connect 2 0 1 0;
#X connect 2 0 1 1;
#X connect 3 0 5 0;
#X connect 4 0 3 1;
#X connect 4 0 10 1;
#X connect 4 0 11 0;
#X connect 5 0 2 0;
#X connect 7 0 3 0;
#X connect 8 0 7 0;
#X connect 8 0 12 0;
#X connect 10 0 9 0;
#X connect 11 0 5 1;
#X connect 11 0 10 0;
