#N canvas 691 165 919 488 10;
#X obj 101 101 cnv 15 298 148 empty empty MIDI_IN 20 12 0 14 -162280
-66577 0;
#X obj 114 142 hsl 128 15 0 127 0 0 \$0-note-send \$0-note-recv Note:0
3 8 0 10 -99865 -1 -1 0 1;
#X obj 114 166 hsl 128 15 0 127 0 0 \$0-velocity-send \$0-velocity-recv
Velocity:0 3 8 0 10 -99865 -1 -1 0 1;
#X obj 259 116 vsl 15 128 0 16384 0 0 \$0-pbend-send \$0-pbend-recv
PB:7804.98 0 -9 0 10 -99865 -1 -1 6050 1;
#X obj 330 115 vsl 15 128 0 127 0 0 \$0-mod-send \$0-mod-recv Mod:127
0 -9 0 10 -99865 -1 -1 12700 1;
#N canvas 235 264 515 121 send-recive 0;
#X obj 15 21 r \$0-note-send;
#X msg 15 46 label Note:\$1;
#X obj 15 70 s \$0-note-recv;
#X obj 123 19 r \$0-velocity-send;
#X obj 123 68 s \$0-velocity-recv;
#X msg 123 44 label Velocity:\$1;
#X obj 258 19 r \$0-pbend-send;
#X msg 258 44 label PB:\$1;
#X obj 258 68 s \$0-pbend-recv;
#X obj 371 16 r \$0-mod-send;
#X msg 371 41 label Mod:\$1;
#X obj 371 65 s \$0-mod-recv;
#X connect 0 0 1 0;
#X connect 1 0 2 0;
#X connect 3 0 5 0;
#X connect 5 0 4 0;
#X connect 6 0 7 0;
#X connect 7 0 8 0;
#X connect 9 0 10 0;
#X connect 10 0 11 0;
#X restore 99 62 pd send-recive;
#X obj 444 41 notein;
#X floatatom 444 82 5 0 0 2 Note - -, f 5;
#X floatatom 491 84 5 0 0 2 Velocity - -, f 5;
#X floatatom 551 85 5 0 0 2 Channel - -, f 5;
#X obj 200 108 nbx 2 16 1 16 0 0 empty empty Channel 0 -8 0 12 -99865
-1 -1 1 256 0;
#X obj 551 177 sel 1;
#X msg 551 200 1;
#X floatatom 583 201 5 0 0 0 - - -, f 5;
#X obj 583 221 t b;
#X msg 583 242 0;
#X obj 443 274 spigot 1;
#X obj 491 301 spigot 1;
#X obj 238 33 loadbang;
#X obj 115 386 outlet;
#X obj 115 352 pack f f f f;
#X obj 212 277 t b f;
#X obj 181 297 t b f;
#X obj 149 320 t b f;
#X obj 624 31 bendin;
#X floatatom 677 85 5 0 0 2 Channel - -, f 5;
#X floatatom 624 104 5 0 0 2 Value - -, f 5;
#X obj 677 124 sel 1;
#X msg 677 147 1;
#X floatatom 709 148 5 0 0 0 - - -, f 5;
#X obj 709 168 t b;
#X msg 709 189 0;
#X obj 624 248 spigot 1;
#X msg 259 68 8192;
#X floatatom 806 83 5 0 0 2 Channel - -, f 5;
#X floatatom 754 101 5 0 0 2 Value - -, f 5;
#X obj 807 121 sel 1;
#X msg 807 144 1;
#X floatatom 840 141 5 0 0 0 - - -, f 5;
#X obj 839 165 t b;
#X msg 839 186 0;
#X obj 754 245 spigot 1;
#X obj 754 28 ctlin;
#X connect 1 0 20 0;
#X connect 2 0 23 0;
#X connect 3 0 22 0;
#X connect 4 0 21 0;
#X connect 6 0 7 0;
#X connect 6 1 8 0;
#X connect 6 2 9 0;
#X connect 7 0 16 0;
#X connect 8 0 17 0;
#X connect 9 0 11 0;
#X connect 10 0 11 1;
#X connect 10 0 27 1;
#X connect 10 0 36 1;
#X connect 11 0 12 0;
#X connect 11 1 13 0;
#X connect 12 0 16 1;
#X connect 12 0 17 1;
#X connect 13 0 14 0;
#X connect 14 0 15 0;
#X connect 15 0 16 1;
#X connect 15 0 17 1;
#X connect 16 0 1 0;
#X connect 17 0 2 0;
#X connect 18 0 10 0;
#X connect 18 0 33 0;
#X connect 20 0 19 0;
#X connect 21 0 20 0;
#X connect 21 1 20 3;
#X connect 22 0 20 0;
#X connect 22 1 20 2;
#X connect 23 0 20 0;
#X connect 23 1 20 1;
#X connect 24 0 26 0;
#X connect 24 1 25 0;
#X connect 25 0 27 0;
#X connect 26 0 32 0;
#X connect 27 0 28 0;
#X connect 27 1 29 0;
#X connect 28 0 32 1;
#X connect 29 0 30 0;
#X connect 30 0 31 0;
#X connect 31 0 32 1;
#X connect 32 0 3 0;
#X connect 33 0 3 0;
#X connect 34 0 36 0;
#X connect 35 0 41 0;
#X connect 36 0 37 0;
#X connect 36 1 38 0;
#X connect 37 0 41 1;
#X connect 38 0 39 0;
#X connect 39 0 40 0;
#X connect 40 0 41 1;
#X connect 41 0 4 0;
#X connect 42 0 35 0;
#X connect 42 1 34 0;
#X coords 0 -1 1 1 300 150 2 100 100;
