#N canvas 334 144 1045 708 10;
#X obj 205 204 cnv 15 202 78 empty empty MIDI\ FX\ Select 29 21 0 18
-253292 -66577 0;
#X obj 394 27 cnv 15 167 164 empty empty FX\ Controls 18 19 0 18 -253738
-66577 0;
#X obj 578 27 cnv 15 264 227 empty empty FX\ Select 121 51 0 18 -253736
-66577 0;
#X obj 210 25 cnv 15 165 140 empty empty MIDI\ Control 18 19 0 18 -261543
-66577 0;
#X obj 863 195 cnv 15 166 232 empty empty FX\ B\ Volume 20 16 0 16
-191928 -66577 0;
#X obj 20 190 cnv 15 172 233 empty empty FX\ A\ Volume 20 16 0 16 -191928
-66577 0;
#X obj 578 548 cnv 15 277 133 empty empty FX\ B\ on/off 40 24 0 18
-245291 -66577 0;
#X obj 206 546 cnv 15 261 136 empty empty FX\ A\ on/off 38 29 0 18
-245291 -66577 0;
#X obj 630 316 cnv 15 223 184 empty empty FX\ 3 70 50 0 24 -204330
-66577 0;
#X obj 204 313 cnv 15 199 188 empty empty FX\ 1 70 50 0 24 -204330
-66577 0;
#X obj 411 314 cnv 15 211 186 empty empty FX\ 2 70 50 0 24 -204330
-66577 0;
#X obj 231 651 tgl 16 0 empty empty FX1 20 5 0 10 -262144 -1 -1 0 1
;
#X obj 392 650 tgl 15 0 empty empty FX3 20 5 0 10 -262144 -1 -1 0 1
;
#X obj 311 650 tgl 15 0 empty empty FX2 20 5 0 10 -262144 -1 -1 0 1
;
#X obj 603 648 tgl 16 0 empty empty FX1 20 5 0 10 -262144 -1 -1 0 1
;
#X obj 764 648 tgl 15 0 empty empty FX3 20 5 0 10 -262144 -1 -1 0 1
;
#X obj 683 648 tgl 15 0 empty empty FX2 20 5 0 10 -262144 -1 -1 0 1
;
#X obj 216 466 *~;
#X obj 381 466 *~;
#X obj 491 578 dac~, f 6;
#X obj 40 242 hsl 128 15 0 127 0 0 empty empty A\ FX\ 1\ Volume -3
-8 0 10 -262144 -1 -1 3500 1;
#X obj 42 307 hsl 128 15 0 127 0 0 empty empty A\ FX\ 2\ Volume -2
-8 0 10 -262144 -1 -1 0 1;
#X obj 43 369 hsl 128 15 0 127 0 0 empty empty A\ FX\ 3\ Volume -2
-8 0 10 -262144 -1 -1 0 1;
#X obj 879 248 hsl 128 15 0 127 0 0 empty empty B\ FX\ 1\ Volume -2
-8 0 10 -262144 -1 -1 0 1;
#X obj 878 308 hsl 128 15 0 127 0 0 empty empty B\ FX\ 2\ Volume -2
-8 0 10 -262144 -1 -1 0 1;
#X obj 880 367 hsl 128 15 0 127 0 0 empty empty B\ FX\ 3\ Volume -2
-8 0 10 -262144 -1 -1 0 1;
#X obj 416 467 *~;
#X obj 599 467 *~;
#X obj 638 466 *~;
#X obj 821 466 *~;
#X obj 613 43 tgl 15 0 empty empty empty 17 7 0 10 -262144 -1 -1 0
1;
#X obj 412 74 hsl 128 15 0 127 0 0 empty empty FX\ Control\ 1 -2 -8
0 10 -262144 -1 -1 0 1;
#X obj 411 135 hsl 128 15 0 127 0 0 empty empty FX\ Control\ 2 -2 -8
0 10 -262144 -1 -1 0 1;
#X obj 646 44 tgl 15 0 empty empty empty 17 7 0 10 -262144 -1 -1 0
1;
#X obj 614 130 == 1;
#X obj 647 130 == 0;
#X obj 222 118 controller_Wouter;
#X obj 222 70 ctlin, f 17;
#X floatatom 221 95 5 0 0 0 - - -, f 5;
#X floatatom 271 95 4 0 0 0 - - -, f 4;
#X floatatom 321 95 4 0 0 0 - - -, f 4;
#X obj 40 262 / 127;
#X obj 41 328 / 127;
#X obj 43 389 / 127;
#X obj 879 270 / 127;
#X obj 877 329 / 127;
#X obj 880 388 / 127;
#X floatatom 646 100 4 0 0 0 - - -, f 4;
#X obj 630 72 bng 15 250 50 0 empty empty empty 17 7 0 10 -262144 -1
-1;
#X floatatom 613 100 4 0 0 0 - - -, f 4;
#X obj 691 154 &&, f 6;
#X obj 691 131 == 0;
#X obj 724 131 == 1;
#X obj 764 153 &&, f 6;
#X obj 797 130 == 1;
#X obj 764 130 == 1;
#X floatatom 691 179 4 0 0 0 - - -, f 4;
#X floatatom 614 177 4 0 0 0 - - -, f 4;
#X floatatom 764 178 4 0 0 0 - - -, f 4;
#X obj 614 153 &&, f 6;
#X obj 412 97 / 127;
#X obj 411 158 / 127;
#X obj 448 241 *~ 1;
#X obj 505 242 *~ 1;
#X obj 491 547 *~ 1;
#X obj 524 547 *~ 1;
#X obj 231 627 > 0;
#X obj 415 320 fx_ringmodulator, f 31;
#X obj 636 321 fx_tremolo, f 31;
#X obj 215 320 fx_simplefuzz, f 28;
#X obj 225 247 controller_cc_fx_selector;
#X obj 790 216 spigot;
#X obj 749 216 spigot;
#X obj 709 216 spigot;
#X obj 668 216 spigot;
#X obj 628 216 spigot;
#X obj 588 216 spigot;
#X obj 448 213 adc~ 1 2, f 10;
#X obj 231 386 adc~ 3 4 5 6 7 8, f 101;
#X obj 231 604 snapshot~;
#X obj 968 439 loadbang;
#X obj 311 625 > 0;
#X obj 311 602 snapshot~;
#X obj 883 486 metro 50;
#X obj 392 625 > 0;
#X obj 392 602 snapshot~;
#X obj 602 620 > 0;
#X obj 602 597 snapshot~;
#X obj 682 618 > 0;
#X obj 682 595 snapshot~;
#X obj 763 618 > 0;
#X obj 763 595 snapshot~;
#X obj 883 615 s bela_setDigital;
#X text 883 638 initialise digital pins;
#X msg 882 564 out 11 \, out 12 \, out 13 \, out 14 \, out 15 \, out
16, f 23;
#X text 895 533 pins 0 to 5 are signal rate outputs, f 21;
#X connect 17 0 64 0;
#X connect 18 0 65 0;
#X connect 20 0 41 0;
#X connect 21 0 42 0;
#X connect 22 0 43 0;
#X connect 23 0 44 0;
#X connect 24 0 45 0;
#X connect 25 0 46 0;
#X connect 26 0 64 0;
#X connect 27 0 65 0;
#X connect 28 0 64 0;
#X connect 29 0 65 0;
#X connect 30 0 49 0;
#X connect 30 0 48 0;
#X connect 31 0 60 0;
#X connect 32 0 61 0;
#X connect 33 0 47 0;
#X connect 33 0 48 0;
#X connect 34 0 59 0;
#X connect 35 0 59 1;
#X connect 36 0 20 0;
#X connect 36 1 21 0;
#X connect 36 2 22 0;
#X connect 36 3 23 0;
#X connect 36 4 24 0;
#X connect 36 5 25 0;
#X connect 36 6 31 0;
#X connect 36 7 32 0;
#X connect 36 8 70 0;
#X connect 37 0 38 0;
#X connect 37 1 39 0;
#X connect 37 2 40 0;
#X connect 38 0 36 0;
#X connect 39 0 36 1;
#X connect 40 0 36 2;
#X connect 41 0 66 0;
#X connect 41 0 17 1;
#X connect 42 0 81 0;
#X connect 42 0 26 1;
#X connect 43 0 28 1;
#X connect 43 0 84 0;
#X connect 44 0 18 1;
#X connect 44 0 86 0;
#X connect 45 0 27 1;
#X connect 45 0 88 0;
#X connect 46 0 29 1;
#X connect 46 0 90 0;
#X connect 47 0 35 0;
#X connect 47 0 52 0;
#X connect 47 0 54 0;
#X connect 48 0 49 0;
#X connect 48 0 47 0;
#X connect 49 0 34 0;
#X connect 49 0 51 0;
#X connect 49 0 55 0;
#X connect 50 0 56 0;
#X connect 51 0 50 0;
#X connect 52 0 50 1;
#X connect 53 0 58 0;
#X connect 54 0 53 1;
#X connect 55 0 53 0;
#X connect 56 0 73 1;
#X connect 56 0 74 1;
#X connect 57 0 75 1;
#X connect 57 0 76 1;
#X connect 58 0 71 1;
#X connect 58 0 72 1;
#X connect 59 0 57 0;
#X connect 60 0 70 1;
#X connect 60 0 72 0;
#X connect 60 0 74 0;
#X connect 60 0 76 0;
#X connect 61 0 70 2;
#X connect 61 0 71 0;
#X connect 61 0 73 0;
#X connect 61 0 75 0;
#X connect 62 0 67 0;
#X connect 62 0 68 0;
#X connect 62 0 69 0;
#X connect 63 0 67 0;
#X connect 63 0 68 0;
#X connect 63 0 69 0;
#X connect 64 0 19 0;
#X connect 65 0 19 1;
#X connect 66 0 11 0;
#X connect 67 0 26 0;
#X connect 67 1 27 0;
#X connect 68 0 28 0;
#X connect 68 1 29 0;
#X connect 69 0 17 0;
#X connect 69 1 18 0;
#X connect 70 0 69 1;
#X connect 70 1 69 2;
#X connect 70 2 67 1;
#X connect 70 3 67 2;
#X connect 70 4 68 1;
#X connect 70 5 68 2;
#X connect 71 0 68 2;
#X connect 72 0 68 1;
#X connect 73 0 67 2;
#X connect 74 0 67 1;
#X connect 75 0 69 2;
#X connect 76 0 69 1;
#X connect 77 0 62 0;
#X connect 77 1 63 0;
#X connect 78 0 17 1;
#X connect 78 0 79 0;
#X connect 78 1 26 1;
#X connect 78 1 82 0;
#X connect 78 2 28 1;
#X connect 78 2 85 0;
#X connect 78 3 18 1;
#X connect 78 3 87 0;
#X connect 78 4 27 1;
#X connect 78 4 89 0;
#X connect 78 5 29 1;
#X connect 78 5 91 0;
#X connect 79 0 66 0;
#X connect 80 0 83 0;
#X connect 80 0 94 0;
#X connect 81 0 13 0;
#X connect 82 0 81 0;
#X connect 83 0 79 0;
#X connect 83 0 82 0;
#X connect 83 0 85 0;
#X connect 83 0 87 0;
#X connect 83 0 89 0;
#X connect 83 0 91 0;
#X connect 84 0 12 0;
#X connect 85 0 84 0;
#X connect 86 0 14 0;
#X connect 87 0 86 0;
#X connect 88 0 16 0;
#X connect 89 0 88 0;
#X connect 90 0 15 0;
#X connect 91 0 90 0;
#X connect 94 0 92 0;
