#N canvas 662 174 1461 1005 10;
#X obj 433 333 GuitarExtended-RingModulator;
#X obj 59 139 tgl 16 0 empty empty empty 17 7 0 10 -262144 -1 -1 1
1;
#X obj 27 181 spigot~;
#X obj 237 139 tgl 15 0 empty empty empty 17 7 0 10 -262144 -1 -1 1
1;
#X obj 198 195 spigot~;
#X obj 146 137 tgl 15 0 empty empty empty 17 7 0 10 -262144 -1 -1 1
1;
#X obj 107 195 spigot~;
#X obj 522 303 GuitarExtended-Tremolo;
#X obj 345 22 osc~ 421;
#X obj 524 134 tgl 16 0 empty empty empty 17 7 0 10 -262144 -1 -1 1
1;
#X obj 498 192 spigot~;
#X obj 701 133 tgl 15 0 empty empty empty 17 7 0 10 -262144 -1 -1 1
1;
#X obj 662 190 spigot~;
#X obj 610 132 tgl 15 0 empty empty empty 17 7 0 10 -262144 -1 -1 1
1;
#X obj 571 190 spigot~;
#X obj 930 646 tgl 15 0 empty empty empty 17 7 0 10 -262144 -1 -1 0
1;
#X obj 347 369 GuitarExtended-WhaAuto;
#X obj 429 530 *~;
#X obj 508 533 *~;
#X obj 460 614 dac~;
#N canvas 0 50 450 250 (subpatch) 0;
#X array display 100 float 3 black black;
#A 0 0 0 0 0 0 0 0 0 0 0 0 0 0 0 0 0 0 0 0 0 0 0 0 0 0 0 0 0 0 0 0
0 0 0 0 0 0 0 0 0 0 0 0 0 0 0 0 0 0 0 0 0 0 0 0 0 0 0 0 0 0 0 0 0 0
0 0 0 0 0 0 0 0 0 0 0 0 0 0 0 0 0 0 0 0 0 0 0 0 0 0 0 0 0 0 0 0 0 0
0;
#X coords 0 1 100 -1 200 140 1;
#X restore 715 601 graph;
#X msg 580 480 0.5;
#X msg 626 486 0.2;
#X msg 672 487 0;
#X obj 572 612 tabwrite~ display;
#X obj 590 581 metro 100;
#X obj 589 551 tgl 15 0 empty empty empty 17 7 0 10 -262144 -1 -1 1
1;
#X obj 562 53 osc~ 441;
#X msg 562 15 220;
#X msg 660 12 880;
#X msg 605 13 440;
#X obj 176 670 hsl 128 15 0 127 0 0 empty empty A\ FX\ 1\ Volume -2
-8 0 10 -262144 -1 -1 6250 1;
#X obj 319 670 hsl 128 15 0 127 0 0 empty empty A\ FX\ 2\ Volume -2
-8 0 10 -262144 -1 -1 0 1;
#X obj 464 670 hsl 128 15 0 127 0 0 empty empty A\ FX\ 3\ Volume -2
-8 0 10 -262144 -1 -1 0 1;
#X obj 929 594 hsl 128 15 0 127 0 0 empty empty Control\ One -2 -8
0 10 -262144 -1 -1 0 1;
#X obj 929 619 hsl 128 15 0 127 0 0 empty empty Control\ Two -2 -8
0 10 -262144 -1 -1 0 1;
#X obj 953 646 tgl 15 0 empty empty empty 17 7 0 10 -262144 -1 -1 0
1;
#X obj 183 709 hsl 128 15 0 127 0 0 empty empty B\ FX\ 1\ Volume -2
-8 0 10 -262144 -1 -1 0 1;
#X obj 322 708 hsl 128 15 0 127 0 0 empty empty B\ FX\ 2\ Volume -2
-8 0 10 -262144 -1 -1 0 1;
#X obj 467 708 hsl 128 15 0 127 0 0 empty empty B\ FX\ 3\ Volume -2
-8 0 10 -262144 -1 -1 0 1;
#X obj 249 383 *~;
#X connect 0 0 17 0;
#X connect 0 1 18 0;
#X connect 1 0 2 1;
#X connect 2 0 40 0;
#X connect 3 0 4 1;
#X connect 4 0 7 0;
#X connect 5 0 6 1;
#X connect 6 0 0 0;
#X connect 7 0 17 0;
#X connect 7 1 18 0;
#X connect 8 0 2 0;
#X connect 8 0 4 0;
#X connect 8 0 6 0;
#X connect 9 0 10 1;
#X connect 10 0 16 0;
#X connect 11 0 12 1;
#X connect 12 0 7 0;
#X connect 13 0 14 1;
#X connect 14 0 0 0;
#X connect 16 0 17 0;
#X connect 16 1 18 0;
#X connect 17 0 19 0;
#X connect 18 0 19 1;
#X connect 18 0 24 0;
#X connect 21 0 17 1;
#X connect 21 0 18 1;
#X connect 22 0 17 1;
#X connect 22 0 18 1;
#X connect 23 0 17 1;
#X connect 23 0 18 1;
#X connect 25 0 24 0;
#X connect 26 0 25 0;
#X connect 27 0 10 0;
#X connect 27 0 14 0;
#X connect 27 0 12 0;
#X connect 28 0 27 0;
#X connect 29 0 27 0;
#X connect 30 0 27 0;
#X connect 31 0 40 1;
#X connect 40 0 16 0;
