#N canvas 0 55 1280 642 10;
#X obj 226 279 GuitarExtended-RingModulator;
#X obj 64 101 tgl 16 0 empty empty empty 17 7 0 10 -262144 -1 -1 0
1;
#X obj 32 143 spigot~;
#X obj 210 89 tgl 15 0 empty empty empty 17 7 0 10 -262144 -1 -1 0
1;
#X obj 171 145 spigot~;
#X obj 119 87 tgl 15 0 empty empty empty 17 7 0 10 -262144 -1 -1 0
1;
#X obj 102 148 spigot~;
#X obj 315 249 GuitarExtended-Tremolo;
#X obj 143 40 osc~ 421;
#X obj 319 101 tgl 16 0 empty empty empty 17 7 0 10 -262144 -1 -1 0
1;
#X obj 293 159 spigot~;
#X obj 496 100 tgl 15 0 empty empty empty 17 7 0 10 -262144 -1 -1 0
1;
#X obj 457 157 spigot~;
#X obj 405 99 tgl 15 0 empty empty empty 17 7 0 10 -262144 -1 -1 0
1;
#X obj 366 157 spigot~;
#X obj 142 309 GuitarExtended-WhaAuto;
#X obj 193 401 *~;
#X obj 272 404 *~;
#X obj 236 467 dac~;
#X msg 344 351 0.5;
#X msg 390 357 0.2;
#X msg 436 358 0;
#X obj 348 465 tabwrite~ display;
#X obj 366 434 metro 100;
#X obj 365 404 tgl 15 0 empty empty empty 17 7 0 10 -262144 -1 -1 0
1;
#X obj 360 71 osc~ 441;
#X msg 360 33 220;
#X msg 458 30 880;
#X msg 403 31 440;
#X obj 42 329 *~;
#X obj 22 496 Sliders_Horizontal;
#X obj 505 413 non_mvp;
#X obj 640 32 midi_in;
#X obj 593 202 unpack f f f f;
#X floatatom 823 231 3 0 0 0 - - -, f 3;
#X floatatom 662 239 5 0 0 0 - - -, f 5;
#X floatatom 588 235 3 0 0 0 - - -, f 3;
#X floatatom 688 284 3 0 0 0 - - -, f 3;
#X floatatom 740 324 6 0 0 0 - - -, f 6;
#X obj 545 371 bng 15 250 50 0 empty empty empty 17 7 0 10 -262144
-1 -1;
#X obj 588 334 controller_Wouter;
#X connect 0 0 16 0;
#X connect 0 1 17 0;
#X connect 1 0 2 1;
#X connect 2 0 29 0;
#X connect 3 0 4 1;
#X connect 4 0 7 0;
#X connect 5 0 6 1;
#X connect 6 0 0 0;
#X connect 7 0 16 0;
#X connect 7 1 17 0;
#X connect 8 0 2 0;
#X connect 8 0 4 0;
#X connect 8 0 6 0;
#X connect 9 0 10 1;
#X connect 10 0 15 0;
#X connect 11 0 12 1;
#X connect 12 0 7 0;
#X connect 13 0 14 1;
#X connect 14 0 0 0;
#X connect 15 0 16 0;
#X connect 15 1 17 0;
#X connect 16 0 18 0;
#X connect 17 0 18 1;
#X connect 17 0 22 0;
#X connect 19 0 16 1;
#X connect 19 0 17 1;
#X connect 20 0 16 1;
#X connect 20 0 17 1;
#X connect 21 0 16 1;
#X connect 21 0 17 1;
#X connect 23 0 22 0;
#X connect 24 0 23 0;
#X connect 25 0 10 0;
#X connect 25 0 14 0;
#X connect 25 0 12 0;
#X connect 26 0 25 0;
#X connect 27 0 25 0;
#X connect 28 0 25 0;
#X connect 29 0 15 0;
#X connect 32 0 33 0;
#X connect 33 0 36 0;
#X connect 33 1 37 0;
#X connect 33 2 35 0;
#X connect 33 3 34 0;
#X connect 36 0 40 0;
#X connect 37 0 38 0;
#X connect 39 0 1 0;
#X connect 40 0 39 0;
#X connect 40 1 5 0;
#X connect 40 2 3 0;
