#N canvas 326 63 1071 722 10;
#X obj 205 204 cnv 15 202 78 empty empty MIDI\ FX\ Select 29 21 0 18
-253292 -66577 0;
#X obj 394 27 cnv 15 167 164 empty empty FX\ Controls 18 19 0 18 -253738
-66577 0;
#X obj 578 27 cnv 15 264 227 empty empty FX\ Select 121 51 0 18 -253736
-66577 0;
#X obj 210 25 cnv 15 165 140 empty empty MIDI\ Control 18 19 0 18 -261543
-66577 0;
#X obj 858 110 cnv 15 166 232 empty empty FX\ B\ Volume 20 16 0 16
-191928 -66577 0;
#X obj 21 105 cnv 15 172 233 empty empty FX\ A\ Volume 20 16 0 16 -191928
-66577 0;
#X obj 578 547 cnv 15 277 133 empty empty FX\ B\ on/off 40 13 0 18
-245291 -66577 0;
#X obj 206 546 cnv 15 261 136 empty empty FX\ A\ on/off 40 18 0 18
-245291 -66577 0;
#X obj 630 316 cnv 15 223 216 empty empty FX\ 3 67 37 0 24 -204330
-66577 0;
#X obj 204 313 cnv 15 199 216 empty empty FX\ 1 68 36 0 24 -204330
-66577 0;
#X obj 411 314 cnv 15 211 216 empty empty FX\ 2 62 37 0 24 -204330
-66577 0;
#X obj 231 631 tgl 16 0 empty empty FX1 20 5 0 10 -262144 -1 -1 1 1
;
#X obj 390 630 tgl 15 0 empty empty FX3 20 5 0 10 -262144 -1 -1 0 1
;
#X obj 310 630 tgl 15 0 empty empty FX2 20 5 0 10 -262144 -1 -1 0 1
;
#X obj 603 628 tgl 16 0 empty empty FX1 20 5 0 10 -262144 -1 -1 0 1
;
#X obj 762 628 tgl 15 0 empty empty FX3 20 5 0 10 -262144 -1 -1 1 1
;
#X obj 682 628 tgl 15 0 empty empty FX2 20 5 0 10 -262144 -1 -1 1 1
;
#X obj 218 499 *~;
#X obj 379 507 *~;
#X obj 41 157 hsl 128 15 0 127 0 0 empty empty A\ FX\ 1\ Volume -3
-8 0 10 -262144 -1 -1 9500 1;
#X obj 43 222 hsl 128 15 0 127 0 0 empty empty A\ FX\ 2\ Volume -2
-8 0 10 -262144 -1 -1 0 1;
#X obj 44 284 hsl 128 15 0 127 0 0 empty empty A\ FX\ 3\ Volume -2
-8 0 10 -262144 -1 -1 0 1;
#X obj 874 163 hsl 128 15 0 127 0 0 empty empty B\ FX\ 1\ Volume -2
-8 0 10 -262144 -1 -1 0 1;
#X obj 873 223 hsl 128 15 0 127 0 0 empty empty B\ FX\ 2\ Volume -2
-8 0 10 -262144 -1 -1 6650 1;
#X obj 875 282 hsl 128 15 0 127 0 0 empty empty B\ FX\ 3\ Volume -2
-8 0 10 -262144 -1 -1 10700 1;
#X obj 415 507 *~;
#X obj 600 507 *~;
#X obj 638 505 *~;
#X obj 817 507 *~;
#X obj 613 43 tgl 15 0 empty empty empty 17 7 0 10 -262144 -1 -1 0
1;
#X obj 412 74 hsl 128 15 0 127 0 0 empty empty FX\ Control\ 1 -2 -8
0 10 -262144 -1 -1 10700 1;
#X obj 411 135 hsl 128 15 0 127 0 0 empty empty FX\ Control\ 2 -2 -8
0 10 -262144 -1 -1 9050 1;
#X obj 646 44 tgl 15 0 empty empty empty 17 7 0 10 -262144 -1 -1 1
1;
#X obj 614 130 == 1;
#X obj 647 130 == 0;
#X obj 222 118 controller_Wouter;
#X obj 222 70 ctlin, f 17;
#X floatatom 221 95 5 0 0 0 - - -, f 5;
#X floatatom 271 95 4 0 0 0 - - -, f 4;
#X floatatom 321 95 4 0 0 0 - - -, f 4;
#X obj 41 177 / 127;
#X obj 42 243 / 127;
#X obj 44 304 / 127;
#X obj 874 185 / 127;
#X obj 872 244 / 127;
#X obj 875 303 / 127;
#X floatatom 646 100 4 0 0 0 - - -, f 4;
#X obj 630 72 bng 15 250 50 0 empty empty empty 17 7 0 10 -262144 -1
-1;
#X floatatom 613 100 4 0 0 0 - - -, f 4;
#X obj 691 154 &&, f 6;
#X obj 691 131 == 0;
#X obj 724 131 == 1;
#X obj 764 153 &&, f 6;
#X obj 797 130 == 1;
#X obj 764 130 == 1;
#X floatatom 691 179 4 0 0 0 - - -, f 4;
#X floatatom 614 177 4 0 0 0 - - -, f 4;
#X floatatom 764 178 4 0 0 0 - - -, f 4;
#X obj 614 153 &&, f 6;
#X obj 412 97 / 127;
#X obj 411 158 / 127;
#X obj 448 241 *~ 1;
#X obj 505 242 *~ 1;
#X obj 486 574 *~ 1;
#X obj 537 574 *~ 1;
#X obj 231 607 > 0;
#X obj 415 320 fx_ringmodulator, f 31;
#X obj 636 321 fx_tremolo, f 31;
#X obj 215 320 fx_simplefuzz, f 28;
#X obj 225 247 controller_cc_fx_selector;
#X obj 790 216 spigot;
#X obj 749 216 spigot;
#X obj 709 216 spigot;
#X obj 668 216 spigot;
#X obj 628 216 spigot;
#X obj 588 216 spigot;
#X obj 448 213 adc~ 1 2, f 10;
#X obj 228 371 adc~ 3 4 5 6 7 8, f 101;
#X obj 960 31 loadbang;
#X obj 310 605 > 0;
#X obj 770 270 metro 50;
#X obj 390 605 > 0;
#X obj 602 603 > 0;
#X obj 681 601 > 0;
#X obj 761 601 > 0;
#X obj 883 615 s bela_setDigital;
#X text 883 638 initialise digital pins;
#X msg 882 564 out 11 \, out 12 \, out 13 \, out 14 \, out 15 \, out
16, f 23;
#X text 895 533 pins 0 to 5 are signal rate outputs, f 21;
#X obj 486 605 dac~ 1 2, f 9;
#X obj 231 653 dac~ 11 12 13, f 27;
#X obj 603 652 dac~ 14 15 16, f 27;
#X floatatom 223 444 6 0 0 0 - - -, f 6;
#X obj 226 394 snapshot~;
#X floatatom 268 443 6 0 0 0 - - -, f 6;
#X obj 230 423 bng 11 250 50 0 empty empty empty 17 7 0 10 -262144
-1 -1;
#X obj 241 471 max;
#X floatatom 419 446 6 0 0 0 - - -, f 6;
#X obj 426 396 snapshot~;
#X floatatom 464 445 6 0 0 0 - - -, f 6;
#X obj 426 426 bng 11 250 50 0 empty empty empty 17 7 0 10 -262144
-1 -1;
#X obj 434 473 max;
#X floatatom 641 446 6 0 0 0 - - -, f 6;
#X obj 654 397 snapshot~;
#X floatatom 686 445 6 0 0 0 - - -, f 6;
#X obj 642 424 bng 11 250 50 0 empty empty empty 17 7 0 10 -262144
-1 -1;
#X obj 656 473 max;
#X floatatom 314 444 6 0 0 0 - - -, f 6;
#X obj 320 397 snapshot~;
#X floatatom 359 443 6 0 0 0 - - -, f 6;
#X obj 325 424 bng 11 250 50 0 empty empty empty 17 7 0 10 -262144
-1 -1;
#X obj 332 471 max;
#X floatatom 518 450 6 0 0 0 - - -, f 6;
#X obj 525 400 snapshot~;
#X floatatom 563 449 6 0 0 0 - - -, f 6;
#X obj 525 430 bng 11 250 50 0 empty empty empty 17 7 0 10 -262144
-1 -1;
#X obj 533 477 max;
#X floatatom 732 445 6 0 0 0 - - -, f 6;
#X obj 745 396 snapshot~;
#X floatatom 777 444 6 0 0 0 - - -, f 6;
#X obj 733 423 bng 11 250 50 0 empty empty empty 17 7 0 10 -262144
-1 -1;
#X obj 747 472 max;
#X connect 11 0 90 0;
#X connect 12 0 90 2;
#X connect 13 0 90 1;
#X connect 14 0 91 0;
#X connect 15 0 91 2;
#X connect 16 0 91 1;
#X connect 17 0 63 0;
#X connect 18 0 64 0;
#X connect 19 0 40 0;
#X connect 20 0 41 0;
#X connect 21 0 42 0;
#X connect 22 0 43 0;
#X connect 23 0 44 0;
#X connect 24 0 45 0;
#X connect 25 0 63 0;
#X connect 26 0 64 0;
#X connect 27 0 63 0;
#X connect 28 0 64 0;
#X connect 29 0 48 0;
#X connect 29 0 47 0;
#X connect 30 0 59 0;
#X connect 31 0 60 0;
#X connect 32 0 46 0;
#X connect 32 0 47 0;
#X connect 33 0 58 0;
#X connect 34 0 58 1;
#X connect 35 0 19 0;
#X connect 35 1 20 0;
#X connect 35 2 21 0;
#X connect 35 3 22 0;
#X connect 35 4 23 0;
#X connect 35 5 24 0;
#X connect 35 6 30 0;
#X connect 35 7 31 0;
#X connect 36 0 37 0;
#X connect 36 1 38 0;
#X connect 36 2 39 0;
#X connect 37 0 35 0;
#X connect 38 0 35 1;
#X connect 39 0 35 2;
#X connect 40 0 92 0;
#X connect 40 0 95 0;
#X connect 41 0 100 0;
#X connect 41 0 97 0;
#X connect 42 0 105 0;
#X connect 42 0 102 0;
#X connect 43 0 107 0;
#X connect 43 0 110 0;
#X connect 44 0 115 0;
#X connect 44 0 112 0;
#X connect 45 0 120 0;
#X connect 45 0 117 0;
#X connect 46 0 34 0;
#X connect 46 0 51 0;
#X connect 46 0 53 0;
#X connect 47 0 48 0;
#X connect 47 0 46 0;
#X connect 48 0 33 0;
#X connect 48 0 50 0;
#X connect 48 0 54 0;
#X connect 49 0 55 0;
#X connect 50 0 49 0;
#X connect 51 0 49 1;
#X connect 52 0 57 0;
#X connect 53 0 52 1;
#X connect 54 0 52 0;
#X connect 55 0 72 1;
#X connect 55 0 73 1;
#X connect 56 0 74 1;
#X connect 56 0 75 1;
#X connect 57 0 70 1;
#X connect 57 0 71 1;
#X connect 58 0 56 0;
#X connect 59 0 69 1;
#X connect 59 0 71 0;
#X connect 59 0 73 0;
#X connect 59 0 75 0;
#X connect 60 0 69 2;
#X connect 60 0 70 0;
#X connect 60 0 72 0;
#X connect 60 0 74 0;
#X connect 61 0 66 0;
#X connect 61 0 67 0;
#X connect 61 0 68 0;
#X connect 62 0 66 0;
#X connect 62 0 67 0;
#X connect 62 0 68 0;
#X connect 63 0 89 0;
#X connect 64 0 89 1;
#X connect 65 0 11 0;
#X connect 66 0 25 0;
#X connect 66 1 26 0;
#X connect 67 0 27 0;
#X connect 67 1 28 0;
#X connect 68 0 17 0;
#X connect 68 1 18 0;
#X connect 69 0 68 1;
#X connect 69 1 68 2;
#X connect 69 2 66 1;
#X connect 69 3 66 2;
#X connect 69 4 67 1;
#X connect 69 5 67 2;
#X connect 70 0 67 2;
#X connect 71 0 67 1;
#X connect 72 0 66 2;
#X connect 73 0 66 1;
#X connect 74 0 68 2;
#X connect 75 0 68 1;
#X connect 76 0 61 0;
#X connect 76 1 62 0;
#X connect 77 0 93 0;
#X connect 77 1 98 0;
#X connect 77 2 103 0;
#X connect 77 3 108 0;
#X connect 77 4 113 0;
#X connect 77 5 118 0;
#X connect 78 0 80 0;
#X connect 78 0 87 0;
#X connect 79 0 13 0;
#X connect 80 0 93 0;
#X connect 80 0 98 0;
#X connect 80 0 103 0;
#X connect 80 0 104 0;
#X connect 80 0 108 0;
#X connect 80 0 113 0;
#X connect 80 0 118 0;
#X connect 81 0 12 0;
#X connect 82 0 14 0;
#X connect 83 0 16 0;
#X connect 84 0 15 0;
#X connect 87 0 85 0;
#X connect 92 0 96 0;
#X connect 93 0 94 0;
#X connect 93 0 95 0;
#X connect 94 0 96 1;
#X connect 95 0 92 0;
#X connect 95 0 94 0;
#X connect 96 0 65 0;
#X connect 96 0 17 1;
#X connect 97 0 101 0;
#X connect 98 0 99 0;
#X connect 98 0 100 0;
#X connect 99 0 101 1;
#X connect 100 0 97 0;
#X connect 100 0 99 0;
#X connect 101 0 25 1;
#X connect 101 0 79 0;
#X connect 102 0 106 0;
#X connect 103 0 104 0;
#X connect 103 0 105 0;
#X connect 104 0 106 1;
#X connect 105 0 102 0;
#X connect 105 0 104 0;
#X connect 106 0 27 1;
#X connect 106 0 81 0;
#X connect 107 0 111 0;
#X connect 108 0 109 0;
#X connect 108 0 110 0;
#X connect 109 0 111 1;
#X connect 110 0 107 0;
#X connect 110 0 109 0;
#X connect 111 0 18 1;
#X connect 111 0 82 0;
#X connect 112 0 116 0;
#X connect 113 0 114 0;
#X connect 113 0 115 0;
#X connect 114 0 116 1;
#X connect 115 0 112 0;
#X connect 115 0 114 0;
#X connect 116 0 83 0;
#X connect 116 0 26 1;
#X connect 117 0 121 0;
#X connect 118 0 119 0;
#X connect 118 0 120 0;
#X connect 119 0 121 1;
#X connect 120 0 117 0;
#X connect 120 0 119 0;
#X connect 121 0 28 1;
#X connect 121 0 84 0;
