#N canvas 217 86 1075 872 10;
#X obj 861 298 cnv 15 166 232 empty empty FX\ B\ Volume 20 16 0 16
-191928 -66577 0;
#X obj 23 293 cnv 15 172 233 empty empty FX\ A\ Volume 20 16 0 16 -191928
-66577 0;
#X obj 491 270 cnv 15 212 106 empty empty FX\ B\ on/off 36 42 0 18
-245291 -66577 0;
#X obj 208 270 cnv 15 212 106 empty empty FX\ A\ on/off 36 42 0 18
-245291 -66577 0;
#X obj 633 404 cnv 15 217 144 empty empty FX\ 3 70 50 0 24 -204330
-66577 0;
#X obj 207 401 cnv 15 200 144 empty empty FX\ 1 70 50 0 24 -204330
-66577 0;
#X obj 414 402 cnv 15 213 143 empty empty FX\ 2 70 50 0 24 -204330
-66577 0;
#X obj 418 408 GuitarExtended-RingModulator, f 31;
#X obj 256 281 tgl 16 0 empty empty FX1 20 5 0 10 -262144 -1 -1 0 1
;
#X obj 217 345 spigot~;
#X obj 374 281 tgl 15 0 empty empty FX3 20 5 0 10 -262144 -1 -1 0 1
;
#X obj 335 346 spigot~;
#X obj 316 280 tgl 15 0 empty empty FX2 20 5 0 10 -262144 -1 -1 0 1
;
#X obj 277 346 spigot~;
#X obj 639 409 GuitarExtended-Tremolo, f 31;
#X obj 538 282 tgl 16 0 empty empty FX1 20 5 0 10 -262144 -1 -1 0 1
;
#X obj 500 346 spigot~;
#X obj 655 282 tgl 15 0 empty empty FX3 20 5 0 10 -262144 -1 -1 0 1
;
#X obj 616 345 spigot~;
#X obj 598 281 tgl 15 0 empty empty FX2 20 5 0 10 -262144 -1 -1 0 1
;
#X obj 559 346 spigot~;
#X obj 218 409 GuitarExtended-WhaAuto, f 28;
#X obj 218 516 *~;
#X obj 383 516 *~;
#X obj 496 659 dac~, f 6;
#X obj 247 592 tgl 15 0 empty empty Wave\ displays 20 5 0 10 -262144
-1 -1 0 1;
#X obj 438 302 adc~;
#X obj 247 614 metro 50;
#X obj 43 345 hsl 128 15 0 127 0 0 empty empty A\ FX\ 1\ Volume -3
-8 0 10 -262144 -1 -1 3600 1;
#X obj 45 410 hsl 128 15 0 127 0 0 empty empty A\ FX\ 2\ Volume -2
-8 0 10 -262144 -1 -1 7700 1;
#X obj 46 472 hsl 128 15 0 127 0 0 empty empty A\ FX\ 3\ Volume -2
-8 0 10 -262144 -1 -1 8000 1;
#X obj 877 351 hsl 128 15 0 127 0 0 empty empty B\ FX\ 1\ Volume -2
-8 0 10 -262144 -1 -1 5300 1;
#X obj 876 411 hsl 128 15 0 127 0 0 empty empty B\ FX\ 2\ Volume -2
-8 0 10 -262144 -1 -1 5500 1;
#X obj 878 470 hsl 128 15 0 127 0 0 empty empty B\ FX\ 3\ Volume -2
-8 0 10 -262144 -1 -1 7300 1;
#X obj 418 517 *~;
#X obj 601 517 *~;
#X obj 640 516 *~;
#X obj 823 516 *~;
#X obj 794 274 tgl 15 0 empty empty empty 17 7 0 10 -262144 -1 -1 0
1;
#N canvas 0 50 450 250 (subpatch) 0;
#X array displayB 100 float 3 black black;
#A 0 0 0 0 0 0 0 0 0 0 0 0 0 0 0 0 0 0 0 0 0 0 0 0 0 0 0 0 0 0 0 0
0 0 0 0 0 0 0 0 0 0 0 0 0 0 0 0 0 0 0 0 0 0 0 0 0 0 0 0 0 0 0 0 0 0
0 0 0 0 0 0 0 0 0 0 0 0 0 0 0 0 0 0 0 0 0 0 0 0 0 0 0 0 0 0 0 0 0 0
0;
#X coords 0 1 100 -1 160 100 1;
#X restore 871 569 graph;
#X obj 748 208 hsl 128 15 0 127 0 0 empty empty FX\ Control\ 1 -2 -8
0 10 -262144 -1 -1 3300 1;
#X obj 748 241 hsl 128 15 0 127 0 0 empty empty FX\ Control\ 2 -2 -8
0 10 -262144 -1 -1 3400 1;
#X obj 849 275 tgl 15 0 empty empty empty 17 7 0 10 -262144 -1 -1 0
1;
#X obj 755 314 == 1;
#X obj 788 314 == 0;
#X obj 755 337 &&, f 6;
#N canvas 0 50 450 250 (subpatch) 0;
#X array displayA 100 float 3 black black;
#A 0 0 0 0 0 0 0 0 0 0 0 0 0 0 0 0 0 0 0 0 0 0 0 0 0 0 0 0 0 0 0 0
0 0 0 0 0 0 0 0 0 0 0 0 0 0 0 0 0 0 0 0 0 0 0 0 0 0 0 0 0 0 0 0 0 0
0 0 0 0 0 0 0 0 0 0 0 0 0 0 0 0 0 0 0 0 0 0 0 0 0 0 0 0 0 0 0 0 0 0
0;
#X coords 0 1 100 -1 160 100 1;
#X restore 43 572 graph;
#X obj 247 659 tabwrite~ displayA;
#X obj 367 659 tabwrite~ displayB;
#X obj 496 582 *~;
#X obj 529 582 *~;
#X obj 215 79 controller_Wouter;
#X obj 215 31 ctlin, f 17;
#X floatatom 214 56 5 0 0 0 - - -, f 5;
#X floatatom 264 56 4 0 0 0 - - -, f 4;
#X floatatom 314 56 4 0 0 0 - - -, f 4;
#X obj 43 365 / 127;
#X obj 44 431 / 127;
#X obj 46 492 / 127;
#X obj 877 373 / 127;
#X obj 875 432 / 127;
#X obj 878 491 / 127;
#X connect 7 0 34 0;
#X connect 7 1 35 0;
#X connect 8 0 9 1;
#X connect 9 1 21 0;
#X connect 10 0 11 1;
#X connect 11 1 14 0;
#X connect 12 0 13 1;
#X connect 13 1 7 0;
#X connect 14 0 36 0;
#X connect 14 1 37 0;
#X connect 15 0 16 1;
#X connect 16 1 21 0;
#X connect 17 0 18 1;
#X connect 18 1 14 0;
#X connect 19 0 20 1;
#X connect 20 1 7 0;
#X connect 21 0 22 0;
#X connect 21 1 23 0;
#X connect 22 0 49 0;
#X connect 23 0 50 0;
#X connect 25 0 27 0;
#X connect 26 0 9 0;
#X connect 26 0 13 0;
#X connect 26 0 11 0;
#X connect 26 1 16 0;
#X connect 26 1 20 0;
#X connect 26 1 18 0;
#X connect 27 0 47 0;
#X connect 27 0 48 0;
#X connect 28 0 56 0;
#X connect 29 0 57 0;
#X connect 30 0 58 0;
#X connect 31 0 59 0;
#X connect 32 0 60 0;
#X connect 33 0 61 0;
#X connect 34 0 49 0;
#X connect 35 0 50 0;
#X connect 36 0 49 0;
#X connect 37 0 50 0;
#X connect 38 0 43 0;
#X connect 42 0 44 0;
#X connect 43 0 45 0;
#X connect 44 0 45 1;
#X connect 49 0 24 0;
#X connect 49 0 47 0;
#X connect 50 0 24 1;
#X connect 50 0 48 0;
#X connect 51 0 28 0;
#X connect 51 1 29 0;
#X connect 51 2 30 0;
#X connect 51 3 31 0;
#X connect 51 4 32 0;
#X connect 51 5 33 0;
#X connect 51 6 40 0;
#X connect 51 7 41 0;
#X connect 52 0 53 0;
#X connect 52 1 54 0;
#X connect 52 2 55 0;
#X connect 53 0 51 0;
#X connect 54 0 51 1;
#X connect 55 0 51 2;
#X connect 56 0 22 1;
#X connect 57 0 34 1;
#X connect 58 0 36 1;
#X connect 59 0 23 1;
#X connect 60 0 35 1;
#X connect 61 0 37 1;
