#N canvas 264 50 1159 845 10;
#X obj 433 333 GuitarExtended-RingModulator;
#X obj 59 139 tgl 16 0 empty empty empty 17 7 0 10 -262144 -1 -1 0
1;
#X obj 27 181 spigot~;
#X obj 237 139 tgl 15 0 empty empty empty 17 7 0 10 -262144 -1 -1 0
1;
#X obj 198 195 spigot~;
#X obj 146 137 tgl 15 0 empty empty empty 17 7 0 10 -262144 -1 -1 0
1;
#X obj 107 195 spigot~;
#X obj 522 303 GuitarExtended-Tremolo;
#X obj 345 22 osc~ 421;
#X obj 524 134 tgl 16 0 empty empty empty 17 7 0 10 -262144 -1 -1 0
1;
#X obj 498 192 spigot~;
#X obj 701 133 tgl 15 0 empty empty empty 17 7 0 10 -262144 -1 -1 0
1;
#X obj 662 190 spigot~;
#X obj 610 132 tgl 15 0 empty empty empty 17 7 0 10 -262144 -1 -1 0
1;
#X obj 571 190 spigot~;
#X obj 347 369 GuitarExtended-WhaAuto;
#X obj 429 530 *~;
#X obj 508 533 *~;
#X obj 460 614 dac~;
#X msg 580 480 0.5;
#X msg 626 486 0.2;
#X msg 672 487 0;
#X obj 572 612 tabwrite~ display;
#X obj 590 581 metro 100;
#X obj 589 551 tgl 15 0 empty empty empty 17 7 0 10 -262144 -1 -1 0
1;
#X obj 562 53 osc~ 441;
#X msg 562 15 220;
#X msg 660 12 880;
#X msg 605 13 440;
#X obj 249 383 *~;
#X obj 74 709 Sliders_Horizontal;
#X obj 739 391 non_mvp;
#X connect 0 0 16 0;
#X connect 0 1 17 0;
#X connect 1 0 2 1;
#X connect 2 0 29 0;
#X connect 3 0 4 1;
#X connect 4 0 7 0;
#X connect 5 0 6 1;
#X connect 6 0 0 0;
#X connect 7 0 16 0;
#X connect 7 1 17 0;
#X connect 8 0 2 0;
#X connect 8 0 4 0;
#X connect 8 0 6 0;
#X connect 9 0 10 1;
#X connect 10 0 15 0;
#X connect 11 0 12 1;
#X connect 12 0 7 0;
#X connect 13 0 14 1;
#X connect 14 0 0 0;
#X connect 15 0 16 0;
#X connect 15 1 17 0;
#X connect 16 0 18 0;
#X connect 17 0 18 1;
#X connect 17 0 22 0;
#X connect 19 0 16 1;
#X connect 19 0 17 1;
#X connect 20 0 16 1;
#X connect 20 0 17 1;
#X connect 21 0 16 1;
#X connect 21 0 17 1;
#X connect 23 0 22 0;
#X connect 24 0 23 0;
#X connect 25 0 10 0;
#X connect 25 0 14 0;
#X connect 25 0 12 0;
#X connect 26 0 25 0;
#X connect 27 0 25 0;
#X connect 28 0 25 0;
#X connect 29 0 15 0;
