#N canvas 217 86 1075 872 10;
#X obj 879 578 cnv 15 158 98 empty empty empty 18 19 0 18 -261425 -66577
0;
#X obj 573 36 cnv 15 167 164 empty empty FX\ Controls 18 19 0 18 -253738
-66577 0;
#X obj 29 575 cnv 15 158 98 empty empty empty 18 19 0 18 -261425 -66577
0;
#X obj 757 36 cnv 15 264 227 empty empty FX\ Select 121 51 0 18 -253736
-66577 0;
#X obj 389 34 cnv 15 165 140 empty empty MIDI\ Control 18 19 0 18 -261543
-66577 0;
#X obj 861 298 cnv 15 166 232 empty empty FX\ B\ Volume 20 16 0 16
-191928 -66577 0;
#X obj 23 293 cnv 15 172 233 empty empty FX\ A\ Volume 20 16 0 16 -191928
-66577 0;
#X obj 510 270 cnv 15 212 106 empty empty FX\ B\ on/off 36 42 0 18
-245291 -66577 0;
#X obj 208 270 cnv 15 212 106 empty empty FX\ A\ on/off 36 42 0 18
-245291 -66577 0;
#X obj 633 404 cnv 15 217 144 empty empty FX\ 3 70 50 0 24 -204330
-66577 0;
#X obj 207 401 cnv 15 200 144 empty empty FX\ 1 70 50 0 24 -204330
-66577 0;
#X obj 414 402 cnv 15 213 143 empty empty FX\ 2 70 50 0 24 -204330
-66577 0;
#X obj 418 408 GuitarExtended-RingModulator, f 31;
#X obj 256 281 tgl 16 0 empty empty FX1 20 5 0 10 -262144 -1 -1 0 1
;
#X obj 217 345 spigot~;
#X obj 374 281 tgl 15 0 empty empty FX3 20 5 0 10 -262144 -1 -1 1 1
;
#X obj 335 346 spigot~;
#X obj 316 280 tgl 15 0 empty empty FX2 20 5 0 10 -262144 -1 -1 0 1
;
#X obj 277 346 spigot~;
#X obj 639 409 GuitarExtended-Tremolo, f 31;
#X obj 557 282 tgl 16 0 empty empty FX1 20 5 0 10 -262144 -1 -1 1 1
;
#X obj 519 346 spigot~;
#X obj 674 282 tgl 15 0 empty empty FX3 20 5 0 10 -262144 -1 -1 0 1
;
#X obj 635 345 spigot~;
#X obj 617 281 tgl 15 0 empty empty FX2 20 5 0 10 -262144 -1 -1 0 1
;
#X obj 578 346 spigot~;
#X obj 218 409 GuitarExtended-WhaAuto, f 28;
#X obj 218 516 *~;
#X obj 383 516 *~;
#X obj 496 659 dac~, f 6;
#X obj 247 592 tgl 15 0 empty empty Wave\ displays 20 5 0 10 -262144
-1 -1 1 1;
#X obj 247 614 metro 50;
#X obj 43 345 hsl 128 15 0 127 0 0 empty empty A\ FX\ 1\ Volume -3
-8 0 10 -262144 -1 -1 0 1;
#X obj 45 410 hsl 128 15 0 127 0 0 empty empty A\ FX\ 2\ Volume -2
-8 0 10 -262144 -1 -1 0 1;
#X obj 46 472 hsl 128 15 0 127 0 0 empty empty A\ FX\ 3\ Volume -2
-8 0 10 -262144 -1 -1 9900 1;
#X obj 877 351 hsl 128 15 0 127 0 0 empty empty B\ FX\ 1\ Volume -2
-8 0 10 -262144 -1 -1 12700 1;
#X obj 876 411 hsl 128 15 0 127 0 0 empty empty B\ FX\ 2\ Volume -2
-8 0 10 -262144 -1 -1 0 1;
#X obj 878 470 hsl 128 15 0 127 0 0 empty empty B\ FX\ 3\ Volume -2
-8 0 10 -262144 -1 -1 0 1;
#X obj 418 517 *~;
#X obj 601 517 *~;
#X obj 640 516 *~;
#X obj 823 516 *~;
#X obj 792 52 tgl 15 0 empty empty empty 17 7 0 10 -262144 -1 -1 1
1;
#N canvas 0 50 450 250 (subpatch) 0;
#X array displayB 100 float 3 black black;
#A 0 0 0 0 0 0 0 0 0 0 0 0 0 0 0 0 0 0 0 0 0 0 0 0 0 0 0 0 0 0 0 0
0 0 0 0 0 0 0 0 0 0 0 0 0 0 0 0 0 0 0 0 0 0 0 0 0 0 0 0 0 0 0 0 0 0
0 0 0 0 0 0 0 0 0 0 0 0 0 0 0 0 0 0 0 0 0 0 0 0 0 0 0 0 0 0 0 0 0 0
0;
#X coords 0 1 100 -1 160 100 1;
#X restore 878 577 graph;
#X obj 591 83 hsl 128 15 0 127 0 0 empty empty FX\ Control\ 1 -2 -8
0 10 -262144 -1 -1 9300 1;
#X obj 590 144 hsl 128 15 0 127 0 0 empty empty FX\ Control\ 2 -2 -8
0 10 -262144 -1 -1 11100 1;
#X obj 825 53 tgl 15 0 empty empty empty 17 7 0 10 -262144 -1 -1 0
1;
#X obj 793 139 == 1;
#X obj 826 139 == 0;
#N canvas 0 50 450 250 (subpatch) 0;
#X array displayA 100 float 3 black black;
#A 0 0 0 0 0 0 0 0 0 0 0 0 0 0 0 0 0 0 0 0 0 0 0 0 0 0 0 0 0 0 0 0
0 0 0 0 0 0 0 0 0 0 0 0 0 0 0 0 0 0 0 0 0 0 0 0 0 0 0 0 0 0 0 0 0 0
0 0 0 0 0 0 0 0 0 0 0 0 0 0 0 0 0 0 0 0 0 0 0 0 0 0 0 0 0 0 0 0 0 0
0;
#X coords 0 1 100 -1 160 100 1;
#X restore 28 573 graph;
#X obj 247 659 tabwrite~ displayA;
#X obj 367 659 tabwrite~ displayB;
#X obj 401 127 controller_Wouter;
#X obj 401 79 ctlin, f 17;
#X floatatom 400 104 5 0 0 0 - - -, f 5;
#X floatatom 450 104 4 0 0 0 - - -, f 4;
#X floatatom 500 104 4 0 0 0 - - -, f 4;
#X obj 43 365 / 127;
#X obj 44 431 / 127;
#X obj 46 492 / 127;
#X obj 877 373 / 127;
#X obj 875 432 / 127;
#X obj 878 491 / 127;
#X floatatom 825 109 4 0 0 0 - - -, f 4;
#X obj 809 81 bng 15 250 50 0 empty empty empty 17 7 0 10 -262144 -1
-1;
#X floatatom 792 109 4 0 0 0 - - -, f 4;
#X obj 870 163 &&, f 6;
#X obj 870 140 == 0;
#X obj 903 140 == 1;
#X obj 943 162 &&, f 6;
#X obj 976 139 == 1;
#X obj 943 139 == 1;
#X obj 778 226 *;
#X obj 807 226 *;
#X floatatom 870 188 4 0 0 0 - - -, f 4;
#X floatatom 793 186 4 0 0 0 - - -, f 4;
#X floatatom 943 187 4 0 0 0 - - -, f 4;
#X obj 793 162 &&, f 6;
#X obj 856 225 *;
#X obj 885 225 *;
#X obj 928 224 *;
#X obj 957 224 *;
#X obj 591 106 / 127;
#X obj 590 167 / 127;
#X obj 63 104 openpanel;
#X obj 63 85 bng 15 250 50 0 empty empty empty 17 7 0 10 -262144 -1
-1;
#X msg 63 124 open \$1;
#X obj 63 162 readsf~ 2;
#X text 87 83 click here to open wav file;
#X msg 165 108 start;
#X msg 218 109 stop;
#X obj 434 251 adc~;
#X obj 435 302 *~ 1;
#X obj 471 303 *~ 1;
#X obj 496 582 *~ 1;
#X obj 529 582 *~ 1;
#X connect 12 0 38 0;
#X connect 12 1 39 0;
#X connect 13 0 14 1;
#X connect 14 1 26 0;
#X connect 15 0 16 1;
#X connect 16 1 19 0;
#X connect 17 0 18 1;
#X connect 18 1 12 0;
#X connect 19 0 40 0;
#X connect 19 1 41 0;
#X connect 20 0 21 1;
#X connect 21 1 26 0;
#X connect 22 0 23 1;
#X connect 23 1 19 0;
#X connect 24 0 25 1;
#X connect 25 1 12 0;
#X connect 26 0 27 0;
#X connect 26 1 28 0;
#X connect 27 0 94 0;
#X connect 28 0 95 0;
#X connect 30 0 31 0;
#X connect 31 0 50 0;
#X connect 31 0 51 0;
#X connect 32 0 57 0;
#X connect 33 0 58 0;
#X connect 34 0 59 0;
#X connect 35 0 60 0;
#X connect 36 0 61 0;
#X connect 37 0 62 0;
#X connect 38 0 94 0;
#X connect 39 0 95 0;
#X connect 40 0 94 0;
#X connect 41 0 95 0;
#X connect 42 0 65 0;
#X connect 42 0 64 0;
#X connect 44 0 82 0;
#X connect 45 0 83 0;
#X connect 46 0 63 0;
#X connect 46 0 64 0;
#X connect 47 0 77 0;
#X connect 48 0 77 1;
#X connect 52 0 32 0;
#X connect 52 1 33 0;
#X connect 52 2 34 0;
#X connect 52 3 35 0;
#X connect 52 4 36 0;
#X connect 52 5 37 0;
#X connect 52 6 44 0;
#X connect 52 7 45 0;
#X connect 53 0 54 0;
#X connect 53 1 55 0;
#X connect 53 2 56 0;
#X connect 54 0 52 0;
#X connect 55 0 52 1;
#X connect 56 0 52 2;
#X connect 57 0 27 1;
#X connect 58 0 38 1;
#X connect 59 0 40 1;
#X connect 60 0 28 1;
#X connect 61 0 39 1;
#X connect 62 0 41 1;
#X connect 63 0 48 0;
#X connect 63 0 68 0;
#X connect 63 0 70 0;
#X connect 64 0 65 0;
#X connect 64 0 63 0;
#X connect 65 0 47 0;
#X connect 65 0 67 0;
#X connect 65 0 71 0;
#X connect 66 0 74 0;
#X connect 67 0 66 0;
#X connect 68 0 66 1;
#X connect 69 0 76 0;
#X connect 70 0 69 1;
#X connect 71 0 69 0;
#X connect 72 0 26 1;
#X connect 73 0 26 2;
#X connect 74 0 78 1;
#X connect 74 0 79 1;
#X connect 75 0 72 1;
#X connect 75 0 73 1;
#X connect 76 0 80 1;
#X connect 76 0 81 1;
#X connect 77 0 75 0;
#X connect 82 0 72 0;
#X connect 82 0 78 0;
#X connect 82 0 80 0;
#X connect 83 0 73 0;
#X connect 83 0 79 0;
#X connect 83 0 81 0;
#X connect 84 0 86 0;
#X connect 85 0 84 0;
#X connect 86 0 87 0;
#X connect 87 0 92 0;
#X connect 87 0 93 0;
#X connect 89 0 87 0;
#X connect 90 0 87 0;
#X connect 92 0 14 0;
#X connect 92 0 18 0;
#X connect 92 0 16 0;
#X connect 93 0 21 0;
#X connect 93 0 25 0;
#X connect 93 0 23 0;
#X connect 94 0 29 0;
#X connect 94 0 50 0;
#X connect 95 0 29 1;
#X connect 95 0 51 0;
