#N canvas 0 76 1024 692 10;
#X obj 10 359 tabwrite EffectRank;
#X obj 162 284 tabread EffectRank;
#X obj 136 325 f;
#X obj 99 303 tabread EffectRank;
#X obj 142 33 bng 15 250 50 0 empty empty empty 17 7 0 10 -262144 -1
-1;
#X obj 364 -13 loadbang;
#X obj 175 9 inlet;
#X msg 122 261 1;
#X msg 90 263 1;
#X msg 163 254 0;
#X msg 409 94 set \$1;
#X msg 351 91 set \$1;
#X obj 372 31 f \$1;
#X obj 417 62 - 1;
#X msg 401 324 SendEff_1;
#X msg 802 307 SendEff_2;
#X obj 139 70 t b b b b b b b b b;
#X obj 355 572 s;
#X obj 788 551 s;
#X obj 581 67 + 1;
#X obj 273 338 tabread EffectRank;
#X msg 326 480 Rien_1;
#X obj 546 298 tabread EffectRank;
#X msg 599 460 rien_2;
#X msg 273 318 0;
#X msg 546 278 1;
#X msg 398 283 set SendEff_\$1;
#X msg 791 267 set SendEff_\$1;
#X obj 806 359 symbol;
#X obj 403 370 symbol;
#X obj 290 505 tabread ColourCode;
#X obj 316 537 pack s 0;
#X obj 564 491 tabread ColourCode;
#X obj 590 523 pack s 0;
#X msg 598 429 set \$1_\$2;
#X obj 598 397 pack s 0;
#X obj 590 362 Get_Effect_Name;
#X obj 578 331 t f f;
#X msg 301 452 set \$1_\$2;
#X obj 301 431 pack s 0;
#X obj 300 371 t f f;
#X msg 585 272 0;
#X obj 301 408 Get_Effect_Name;
#X obj 51 187 s GUI_Refresh;
#X obj 351 372 + 1;
#X obj 628 336 + 1;
#X obj 828 12 r refreshNames;
#X obj 826 87 s GUI_Refresh;
#X obj 828 57 t b b b b b b;
#X connect 1 0 2 1;
#X connect 2 0 0 0;
#X connect 3 0 0 0;
#X connect 4 0 16 0;
#X connect 5 0 12 0;
#X connect 6 0 16 0;
#X connect 7 0 3 0;
#X connect 8 0 0 1;
#X connect 9 0 1 0;
#X connect 9 0 0 1;
#X connect 10 0 9 0;
#X connect 10 0 24 0;
#X connect 11 0 7 0;
#X connect 11 0 8 0;
#X connect 11 0 25 0;
#X connect 12 0 13 0;
#X connect 12 0 11 0;
#X connect 12 0 26 0;
#X connect 12 0 19 0;
#X connect 13 0 10 0;
#X connect 14 0 29 0;
#X connect 15 0 28 0;
#X connect 16 0 43 0;
#X connect 16 1 23 0;
#X connect 16 2 25 0;
#X connect 16 3 21 0;
#X connect 16 4 24 0;
#X connect 16 5 2 0;
#X connect 16 6 8 0;
#X connect 16 7 7 0;
#X connect 16 8 9 0;
#X connect 16 8 14 0;
#X connect 16 8 15 0;
#X connect 19 0 27 0;
#X connect 20 0 30 0;
#X connect 20 0 40 0;
#X connect 21 0 31 0;
#X connect 22 0 32 0;
#X connect 22 0 37 0;
#X connect 23 0 33 0;
#X connect 24 0 20 0;
#X connect 25 0 22 0;
#X connect 26 0 14 0;
#X connect 27 0 15 0;
#X connect 28 0 18 1;
#X connect 29 0 17 1;
#X connect 30 0 31 1;
#X connect 31 0 17 0;
#X connect 32 0 33 1;
#X connect 33 0 18 0;
#X connect 34 0 23 0;
#X connect 35 0 34 0;
#X connect 36 0 35 0;
#X connect 37 0 36 0;
#X connect 37 1 45 0;
#X connect 38 0 21 0;
#X connect 39 0 38 0;
#X connect 40 0 42 0;
#X connect 40 1 44 0;
#X connect 41 0 36 0;
#X connect 42 0 39 0;
#X connect 44 0 39 1;
#X connect 45 0 35 1;
#X connect 46 0 48 0;
#X connect 48 0 47 0;
#X connect 48 1 23 0;
#X connect 48 2 25 0;
#X connect 48 3 21 0;
#X connect 48 4 24 0;
#X connect 48 5 15 0;
#X connect 48 5 14 0;
