#N canvas 0 7 1024 692 10;
#X declare -lib hexloader;
#X declare -lib iemmatrix;
#X obj 422 338 s~ in_1;
#X obj 422 359 s~ in_2;
#X obj 423 381 s~ in_3;
#X obj 423 401 s~ in_4;
#X obj 535 177 r~ out_1;
#X obj 593 177 r~ out_2;
#X obj 648 177 r~ out_3;
#X obj 704 177 r~ out_4;
#N canvas 173 94 382 408 GUI 0;
#X obj 1 1 cnv 1 85 50 myCanvas myCanvasR Fuzz_1 5 5 2 15 -258699 -355
0;
#X obj 1 50 cnv 1 85 50 myCanvas myCanvasR Whawha_2 5 5 2 15 -24198
-355 0;
#X obj 1 100 cnv 1 85 50 myCanvas myCanvasR Reverb_3 5 5 2 15 -62784
-355 0;
#X obj 1 150 cnv 1 85 50 myCanvas myCanvasR Delay_4 5 5 2 15 -195568
-355 0;
#X coords 0 -1 1 1 85 200 1 0 0;
#X restore 187 111 pd GUI;
#X obj 161 113 vsl 25 200 1 0 0 0 empty empty empty 0 -9 0 10 -261234
-1 -1 0 0;
#X obj 105 164 bng 40 250 50 0 empty empty Up 15 15 0 10 -4034 -1 -1
;
#X obj 44 415 s effect_up;
#X obj 92 445 s effect_select;
#X symbolatom 277 123 12 0 0 0 - Rec_Name_Eff_1 Name_Eff_1;
#X text 274 106 Effet 1;
#X symbolatom 277 158 12 0 0 0 - Rec_Name_Eff_2 Name_Eff_2;
#X symbolatom 277 194 12 0 0 0 - Rec_Name_Eff_3 Name_Eff_3;
#X symbolatom 277 228 12 0 0 0 - Rec_Name_Eff_4 Name_Eff_4;
#X text 274 142 Effet 2;
#X text 274 177 Effet 3;
#X text 275 211 Effet 4;
#X obj 865 14 bng 15 250 50 0 empty empty empty 17 7 0 10 -262144 -1
-1;
#N canvas 294 247 663 300 initial 0;
#X msg 190 45 \; EffectRank 0 0 1 2 3 \;;
#X obj 430 -7 loadbang;
#X msg 190 88 \; ColourCode 0 13 16 18 20 \;;
#X obj 253 -27 import hexloader;
#X obj 253 -5 import iemmatrix;
#X obj 225 136 table EffectRank 4;
#X obj 224 161 table ColourCode 4;
#X obj 71 -20 inlet;
#X obj 409 23 t b b b b;
#X msg 458 91 \; SendEff_1 Fuzz_1 13 \; SendEff_2 Whawha_2 16 \; SendEff_3
Reverb_3 18 \; SendEff_4 Delay_4 20 \; GUI_Refresh bang \;;
#X msg 159 186 \; Rec_Name_Eff_1 symbol Fuzz \; Rec_Name_Eff_2 symbol
Whawha \; Rec_Name_Eff_3 symbol Reverb \; Rec_Name_Eff_4 symbol Delay
\;;
#X connect 1 0 8 0;
#X connect 7 0 0 0;
#X connect 7 0 2 0;
#X connect 7 0 10 0;
#X connect 7 0 9 0;
#X connect 8 0 9 0;
#X connect 8 1 10 0;
#X connect 8 2 2 0;
#X connect 8 3 0 0;
#X restore 870 49 pd initial;
#N canvas 170 33 645 317 DrawGUI 0;
#X obj 46 249 s pd-GUI;
#X msg 35 63 clear;
#X obj 138 59 r SendEff_1;
#X obj 261 63 r SendEff_2;
#X obj 379 75 r SendEff_3;
#X obj 536 60 r SendEff_4;
#X msg 108 162 obj 1 50 cnv 1 85 50 myCanvas myCanvasR \$1 5 5 2 15
\$2 28;
#X msg 149 186 obj 1 100 cnv 1 85 50 myCanvas myCanvasR \$1 5 5 2 15
\$2 28;
#X msg 180 222 obj 1 150 cnv 1 85 50 myCanvas myCanvasR \$1 5 5 2 15
\$2 28;
#X obj 514 87 list;
#X obj 358 97 list;
#X obj 240 86 list;
#X obj 119 91 list;
#X obj 71 15 r GUI_Refresh;
#X obj 74 37 t b b;
#X msg 60 130 obj 1 1 cnv 1 85 50 myCanvas myCanvasR \$1 5 5 2 15 \$2
28;
#X text 376 291 Pierre Massat \, GuitarExtended \, 2012;
#X connect 1 0 0 0;
#X connect 2 0 12 1;
#X connect 3 0 11 1;
#X connect 4 0 10 1;
#X connect 5 0 9 1;
#X connect 6 0 0 0;
#X connect 7 0 0 0;
#X connect 8 0 0 0;
#X connect 9 0 8 0;
#X connect 10 0 7 0;
#X connect 11 0 6 0;
#X connect 12 0 15 0;
#X connect 13 0 14 0;
#X connect 14 0 12 0;
#X connect 14 0 11 0;
#X connect 14 0 10 0;
#X connect 14 0 9 0;
#X connect 14 1 1 0;
#X connect 15 0 0 0;
#X restore 700 297 pd DrawGUI;
#X obj 423 434 s~ dac;
#X obj 484 177 r~ adc;
#N canvas 0 0 1024 692 ChangeMatrix 1;
#X obj 142 586 mtx_element 5 5;
#X obj 107 545 mtx_zeros 5 5;
#X msg 250 539 \$1 1;
#X msg 204 537 1;
#X obj 134 488 t b f b;
#X obj 370 477 pack 0 0;
#X msg 371 514 \$1 \$2;
#X obj 414 450 + 1;
#X obj 346 450 t b f;
#X obj 512 478 pack 0 0;
#X msg 513 515 \$1 \$2;
#X obj 556 451 + 1;
#X obj 488 451 t b f;
#X obj 671 478 pack 0 0;
#X msg 672 515 \$1 \$2;
#X obj 715 451 + 1;
#X obj 647 451 t b f;
#X msg 796 515 5 \$1;
#X obj 785 451 + 1;
#X obj 510 223 tabread EffectRank;
#X obj 465 273 pack 0 0;
#X obj 465 203 t f f;
#X obj 444 87 until;
#X msg 448 124 1;
#X obj 454 155 f;
#X obj 479 155 + 1;
#X msg 513 129 -1;
#X obj 445 64 t f b;
#X obj 510 246 + 1;
#X msg 443 37 6;
#X text 509 34 <-- Number of effects + 2;
#X text 545 247 <-- Because effects are numbered from 0 on.;
#X obj 70 641 matrix;
#X obj 552 332 t b b;
#X obj 70 668 outlet;
#X obj 465 295 route 0 1 2 3 4 5;
#X obj 521 6 r GUI_Refresh;
#X text 661 657 Pierre Massat \, GuitarExtended \, 2012;
#X connect 0 0 32 1;
#X connect 1 0 0 0;
#X connect 2 0 0 1;
#X connect 3 0 0 0;
#X connect 4 0 3 0;
#X connect 4 1 2 0;
#X connect 4 2 1 0;
#X connect 5 0 6 0;
#X connect 6 0 0 1;
#X connect 7 0 5 1;
#X connect 8 0 3 0;
#X connect 8 1 5 0;
#X connect 9 0 10 0;
#X connect 10 0 0 1;
#X connect 11 0 9 1;
#X connect 12 0 3 0;
#X connect 12 1 9 0;
#X connect 13 0 14 0;
#X connect 14 0 0 1;
#X connect 15 0 13 1;
#X connect 16 0 3 0;
#X connect 16 1 13 0;
#X connect 17 0 0 1;
#X connect 18 0 17 0;
#X connect 19 0 28 0;
#X connect 20 0 35 0;
#X connect 21 0 20 0;
#X connect 21 1 19 0;
#X connect 22 0 23 0;
#X connect 23 0 25 0;
#X connect 24 0 25 1;
#X connect 24 0 21 0;
#X connect 25 0 24 0;
#X connect 26 0 24 0;
#X connect 27 0 22 0;
#X connect 27 1 26 0;
#X connect 28 0 20 1;
#X connect 29 0 27 0;
#X connect 32 0 34 0;
#X connect 33 0 32 0;
#X connect 33 1 3 0;
#X connect 35 0 4 0;
#X connect 35 0 7 0;
#X connect 35 1 8 0;
#X connect 35 1 11 0;
#X connect 35 2 12 0;
#X connect 35 2 15 0;
#X connect 35 3 16 0;
#X connect 35 4 18 0;
#X connect 35 5 33 0;
#X connect 36 0 29 0;
#X restore 700 321 pd ChangeMatrix;
#X obj 700 344 s New-Matrix;
#X obj 404 154 r New-Matrix;
#N canvas 392 81 521 557 GUI_Engine 0;
#X obj 133 49 r effect_select;
#X obj 140 89 * 4;
#X obj 140 109 int;
#X floatatom 140 170 5 0 0 0 - - -;
#X obj 140 129 + 1;
#X obj 140 148 min 4;
#X obj 125 245 sel 1 2 3 4;
#X obj 125 213 int;
#X obj 54 183 r effect_up;
#X obj 119 306 Effect_Switch_Up 1;
#X obj 372 291 s refreshNames;
#X obj 386 160 r Name_Eff_1;
#X obj 386 181 r Name_Eff_2;
#X obj 386 203 r Name_Eff_3;
#X obj 386 225 r Name_Eff_4;
#X obj 372 250 bang;
#X obj 373 271 del 1;
#X obj 120 341 Effect_Switch_Up 2;
#X obj 124 380 Effect_Switch_Up 3;
#X text 244 517 Pierre Massat \, GuitarExtended \, 2012;
#X connect 0 0 1 0;
#X connect 1 0 2 0;
#X connect 2 0 4 0;
#X connect 3 0 7 1;
#X connect 4 0 5 0;
#X connect 5 0 3 0;
#X connect 6 1 9 0;
#X connect 6 2 17 0;
#X connect 6 3 18 0;
#X connect 7 0 6 0;
#X connect 8 0 7 0;
#X connect 11 0 15 0;
#X connect 12 0 15 0;
#X connect 13 0 15 0;
#X connect 14 0 15 0;
#X connect 15 0 16 0;
#X connect 16 0 10 0;
#X restore 700 269 pd GUI_Engine;
#X obj 468 259 mtx_*~ 5 5 20;
#X text 104 129 Move;
#X text 104 144 up;
#X text 107 229 Select;
#X text 107 243 effect;
#X text 107 257 to move;
#X text 107 270 ------>;
#X text 273 262 You can change;
#X text 273 276 the names of;
#X text 273 289 the effects.;
#X text 804 322 <-- The algorithm to map the;
#X text 817 337 sequence of the effects to;
#X text 818 352 a matrix is here.;
#X text 560 603 Pierre Massat \, GuitarExtended \, 2012;
#X connect 4 0 30 2;
#X connect 5 0 30 3;
#X connect 6 0 30 4;
#X connect 7 0 30 5;
#X connect 9 0 12 0;
#X connect 10 0 11 0;
#X connect 21 0 22 0;
#X connect 25 0 30 1;
#X connect 26 0 27 0;
#X connect 28 0 30 0;
#X connect 30 0 0 0;
#X connect 30 1 1 0;
#X connect 30 2 2 0;
#X connect 30 3 3 0;
#X connect 30 4 24 0;
#X coords 0 -1 1 1 260 220 2 100 100;
