#N canvas 0 0 450 300 10;
#X obj 105 123 symbol;
#X obj 187 122 symbol;
#X obj 262 123 symbol;
#X obj 336 123 symbol;
#X obj 94 -1 inlet;
#X obj 152 181 outlet;
#X obj 131 87 r Name_Eff_1;
#X obj 209 87 r Name_Eff_2;
#X obj 287 87 r Name_Eff_3;
#X obj 364 87 r Name_Eff_4;
#X obj 95 34 sel 0 1 2 3;
#X connect 0 0 5 0;
#X connect 1 0 5 0;
#X connect 2 0 5 0;
#X connect 3 0 5 0;
#X connect 4 0 10 0;
#X connect 6 0 0 1;
#X connect 7 0 1 1;
#X connect 8 0 2 1;
#X connect 9 0 3 1;
#X connect 10 0 0 0;
#X connect 10 1 1 0;
#X connect 10 2 2 0;
#X connect 10 3 3 0;
