#N canvas 92 120 779 467 10;
#X declare -lib hexloader;
#X declare -lib iemmatrix;
#X obj 88 22 adc~;
#X obj 77 412 dac~;
#X obj 475 163 Essai_Effect_Sequence;
#X obj 88 43 s~ adc;
#X obj 77 390 r~ dac;
#N canvas 0 0 450 300 Fuzz 0;
#X obj 82 0 inlet~;
#X obj 90 263 outlet~;
#N canvas 0 0 450 300 Fuzz_Guts 0;
#X obj 110 13 inlet~;
#X obj 121 236 outlet~;
#X obj 372 34 switch~;
#X obj 372 7 inlet;
#X obj 109 71 *~ 10;
#X obj 110 113 clip~ -0.2 0.2;
#X connect 0 0 4 0;
#X connect 3 0 2 0;
#X connect 4 0 5 0;
#X connect 5 0 1 0;
#X restore 122 181 pd Fuzz_Guts;
#X obj 298 20 inlet;
#X obj 63 120 *~;
#X obj 132 125 *~;
#X obj 188 67 pack 0 10;
#X obj 188 87 line~;
#X obj 103 61 pack 0 10;
#X obj 103 81 line~;
#X obj 137 34 expr 1-$f1;
#X connect 0 0 4 0;
#X connect 0 0 5 0;
#X connect 2 0 1 0;
#X connect 3 0 2 1;
#X connect 3 0 10 0;
#X connect 3 0 6 0;
#X connect 4 0 1 0;
#X connect 5 0 2 0;
#X connect 6 0 7 0;
#X connect 7 0 5 1;
#X connect 8 0 9 0;
#X connect 9 0 4 1;
#X connect 10 0 8 0;
#X restore 86 127 pd Fuzz;
#X obj 85 96 r~ in_1;
#X obj 86 162 s~ out_1;
#X obj 166 102 tgl 15 0 empty SwitchOn empty 17 7 0 10 -262144 -1 -1
0 1;
#X obj 362 101 r~ in_2;
#X obj 363 167 s~ out_2;
#N canvas 0 0 450 300 Whawha 0;
#X obj 82 0 inlet~;
#X obj 90 263 outlet~;
#X obj 298 20 inlet;
#X obj 63 120 *~;
#X obj 132 125 *~;
#X obj 188 67 pack 0 10;
#X obj 188 87 line~;
#X obj 103 61 pack 0 10;
#X obj 103 81 line~;
#X obj 137 34 expr 1-$f1;
#N canvas 0 0 727 583 Whawha_Guts 0;
#X obj 110 13 inlet~;
#X obj 163 540 outlet~;
#X obj 372 34 switch~;
#X obj 372 7 inlet;
#X obj 203 469 vcf~;
#X floatatom 297 431 5 0 0 0 - - -;
#X obj 297 298 vsl 15 128 0 20 0 0 empty empty empty 0 -9 0 10 -262144
-1 -1 3366 1;
#X obj 272 109 +~ 1;
#X obj 273 130 *~ 0.5;
#X obj 272 88 osc~ 2;
#X obj 374 165 hsl 128 15 700 6000 0 0 empty empty empty -2 -8 0 10
-262144 -1 -1 0 1;
#X obj 328 238 hsl 128 15 0 700 0 0 empty empty empty -2 -8 0 10 -262144
-1 -1 0 1;
#X floatatom 325 257 6 0 0 0 - - -;
#X floatatom 326 199 6 0 0 0 - - -;
#X obj 326 180 -;
#X obj 326 158 bang;
#X obj 226 264 +~ 200;
#X obj 225 182 *~ 1500;
#X text 323 105 <-- LFO (Low-Frequency Oscillator;
#X text 507 163 <-- Maximum of the freq. range;
#X text 461 235 <-- Minimum of the freq. range;
#X text 334 388 <-- "Q";
#X text 245 468 <-- Voltage-Controlled band-pass filter;
#X obj 369 289 loadbang;
#X msg 367 314 5.3;
#X obj 217 503 *~ 3;
#X connect 0 0 4 0;
#X connect 3 0 2 0;
#X connect 4 0 25 0;
#X connect 6 0 5 0;
#X connect 6 0 4 2;
#X connect 7 0 8 0;
#X connect 8 0 17 0;
#X connect 9 0 7 0;
#X connect 10 0 14 0;
#X connect 11 0 12 0;
#X connect 11 0 14 1;
#X connect 11 0 15 0;
#X connect 11 0 16 1;
#X connect 14 0 13 0;
#X connect 14 0 17 1;
#X connect 15 0 14 0;
#X connect 16 0 4 1;
#X connect 17 0 16 0;
#X connect 23 0 24 0;
#X connect 24 0 6 0;
#X connect 25 0 1 0;
#X restore 122 181 pd Whawha_Guts;
#X connect 0 0 3 0;
#X connect 0 0 4 0;
#X connect 2 0 10 1;
#X connect 2 0 9 0;
#X connect 2 0 5 0;
#X connect 3 0 1 0;
#X connect 4 0 10 0;
#X connect 5 0 6 0;
#X connect 6 0 4 1;
#X connect 7 0 8 0;
#X connect 8 0 3 1;
#X connect 9 0 7 0;
#X connect 10 0 1 0;
#X restore 363 132 pd Whawha;
#X obj 82 221 r~ in_3;
#X obj 83 287 s~ out_3;
#X obj 359 226 r~ in_4;
#X obj 360 292 s~ out_4;
#N canvas 0 0 450 300 Reverb 0;
#X obj 82 0 inlet~;
#X obj 90 263 outlet~;
#X obj 298 20 inlet;
#X obj 63 120 *~;
#X obj 132 125 *~;
#X obj 188 67 pack 0 10;
#X obj 188 87 line~;
#X obj 103 61 pack 0 10;
#X obj 103 81 line~;
#X obj 137 34 expr 1-$f1;
#N canvas 0 0 450 300 Reverb_Guts 0;
#X obj 110 13 inlet~;
#X obj 121 236 outlet~;
#X obj 372 34 switch~;
#X obj 372 7 inlet;
#X obj 118 120 freeverb~;
#X msg 192 56 wet 0.5;
#X msg 188 84 dry 0.5;
#X obj 225 19 loadbang;
#X connect 0 0 4 0;
#X connect 3 0 2 0;
#X connect 4 0 1 0;
#X connect 5 0 4 0;
#X connect 6 0 4 0;
#X connect 7 0 5 0;
#X connect 7 0 6 0;
#X restore 122 181 pd Reverb_Guts;
#X connect 0 0 3 0;
#X connect 0 0 4 0;
#X connect 2 0 10 1;
#X connect 2 0 9 0;
#X connect 2 0 5 0;
#X connect 3 0 1 0;
#X connect 4 0 10 0;
#X connect 5 0 6 0;
#X connect 6 0 4 1;
#X connect 7 0 8 0;
#X connect 8 0 3 1;
#X connect 9 0 7 0;
#X connect 10 0 1 0;
#X restore 83 252 pd Reverb;
#N canvas 0 0 450 300 Delay 0;
#X obj 82 0 inlet~;
#X obj 90 263 outlet~;
#X obj 298 20 inlet;
#X obj 63 120 *~;
#X obj 132 125 *~;
#X obj 188 67 pack 0 10;
#X obj 188 87 line~;
#X obj 103 61 pack 0 10;
#X obj 103 81 line~;
#X obj 137 34 expr 1-$f1;
#N canvas 0 0 450 300 Delay_Guts 0;
#X obj 110 13 inlet~;
#X obj 121 236 outlet~;
#X obj 372 34 switch~;
#X obj 372 7 inlet;
#X obj 118 61 delwrite~ delay_essai 1000;
#X obj 147 158 delread~ delay_essai 200;
#X obj 62 118 *~ 0.6;
#X connect 0 0 4 0;
#X connect 3 0 2 0;
#X connect 5 0 1 0;
#X connect 5 0 6 0;
#X connect 6 0 4 0;
#X restore 122 181 pd Delay_Guts;
#X connect 0 0 3 0;
#X connect 0 0 4 0;
#X connect 2 0 10 1;
#X connect 2 0 9 0;
#X connect 2 0 5 0;
#X connect 3 0 1 0;
#X connect 4 0 10 0;
#X connect 5 0 6 0;
#X connect 6 0 4 1;
#X connect 7 0 8 0;
#X connect 8 0 3 1;
#X connect 9 0 7 0;
#X connect 10 0 1 0;
#X restore 360 257 pd Delay;
#X obj 675 30 loadbang;
#X obj 675 56 s SwitchOn;
#X obj 154 224 tgl 15 0 empty SwitchOn empty 17 7 0 10 -262144 -1 -1
0 1;
#X obj 439 104 tgl 15 0 empty SwitchOn empty 17 7 0 10 -262144 -1 -1
1 1;
#X obj 435 236 tgl 15 0 empty SwitchOn empty 17 7 0 10 -262144 -1 -1
1 1;
#X msg 675 82 \; pd dsp 1 \;;
#X text 194 100 <-- Bypass;
#X text 134 128 <-- You can put any effect here \,;
#X text 159 141 just don't touch the [send~];
#X text 159 155 and [receive~] objects.;
#X text 514 439 Pierre Massat \, GuitarExtended \, 2012;
#X connect 0 0 3 0;
#X connect 4 0 1 0;
#X connect 4 0 1 1;
#X connect 5 0 7 0;
#X connect 6 0 5 0;
#X connect 8 0 5 1;
#X connect 9 0 11 0;
#X connect 11 0 10 0;
#X connect 12 0 16 0;
#X connect 14 0 17 0;
#X connect 16 0 13 0;
#X connect 17 0 15 0;
#X connect 18 0 19 0;
#X connect 18 0 23 0;
#X connect 20 0 16 1;
#X connect 21 0 11 1;
#X connect 22 0 17 1;
